<?xml version="1.0" encoding="UTF-8"?>
<svg width="20px" height="19px" viewBox="0 0 20 19" version="1.1" xmlns="http://www.w3.org/2000/svg" xmlns:xlink="http://www.w3.org/1999/xlink">
    <!-- Generator: Sketch 39.1 (31720) - http://www.bohemiancoding.com/sketch -->
    <title>file-drawer</title>
    <desc>Created with Sketch.</desc>
    <defs></defs>
    <g id="Page-1" stroke="none" stroke-width="1" fill="none" fill-rule="evenodd">
        <g id="680x680" transform="translate(-51.000000, -131.000000)" fill="#FFFFFF">
            <g id="Row-2" transform="translate(51.000000, 129.000000)">
                <path d="M16.4750599,7.803 L3.32605992,7.803 L3.32605992,5.463 C3.32605992,5.05 3.66105992,4.715 4.07505992,4.715 L15.7260599,4.715 C16.1400599,4.715 16.4750599,5.05 16.4750599,5.463 L16.4750599,7.803 L16.4750599,7.803 Z M15.7430599,2.665 C15.7430599,2.298 15.4450599,2 15.0780599,2 L4.72305992,2 C4.35605992,2 4.05805992,2.298 4.05805992,2.665 L4.05805992,3.622 L15.7430599,3.622 L15.7430599,2.665 L15.7430599,2.665 Z M19.8040599,9.409 L19.0430599,19.412 C19.0040599,19.934 18.5690599,20.337 18.0450599,20.337 L1.76905992,20.337 C1.24605992,20.337 0.811059918,19.934 0.771059918,19.412 L0.00505991846,9.409 C-0.0199400815,9.082 0.0480599185,8.753 0.201059918,8.463 L1.63005992,5.743 C1.70705992,5.598 1.87305992,5.525 2.03105992,5.567 C2.18405992,5.607 2.29605992,5.747 2.29705992,5.905 L2.31805992,8.562 C2.32005992,8.754 2.47505992,8.908 2.66705992,8.908 L17.1420599,8.908 C17.3340599,8.908 17.4890599,8.754 17.4910599,8.562 L17.5120599,5.905 C17.5130599,5.747 17.6200599,5.609 17.7720599,5.568 C17.9310599,5.526 18.1020599,5.598 18.1790599,5.743 L19.6080599,8.463 C19.7610599,8.754 19.8290599,9.081 19.8040599,9.409 L19.8040599,9.409 Z M14.6860599,12.329 C14.6860599,11.872 14.4830599,11.376 13.8580599,11.376 C13.2010599,11.376 12.9980599,11.906 12.9980599,12.363 C12.9980599,12.917 12.5490599,13.366 11.9950599,13.366 L7.79805992,13.366 C7.24405992,13.366 6.79505992,12.917 6.79505992,12.363 C6.79505992,11.906 6.65405992,11.376 5.95105992,11.376 C5.28005992,11.376 5.12305992,11.872 5.12305992,12.329 C5.12305992,13.822 6.33405992,15.032 7.82605992,15.032 L11.9830599,15.032 C13.4750599,15.032 14.6860599,13.822 14.6860599,12.329 L14.6860599,12.329 Z" id="file-drawer"></path>
            </g>
        </g>
    </g>
</svg>