<?xml version="1.0" encoding="UTF-8"?>
<svg width="22px" height="22px" viewBox="0 0 22 22" version="1.1" xmlns="http://www.w3.org/2000/svg" xmlns:xlink="http://www.w3.org/1999/xlink">
    <!-- Generator: Sketch 39.1 (31720) - http://www.bohemiancoding.com/sketch -->
    <title>plus</title>
    <desc>Created with Sketch.</desc>
    <defs></defs>
    <g id="Page-1" stroke="none" stroke-width="1" fill="none" fill-rule="evenodd">
        <g id="680x680" transform="translate(-291.000000, -450.000000)" fill="#FFFFFF">
            <g id="Row-6" transform="translate(48.000000, 449.000000)">
                <path d="M264.812,10.717 L264.812,13.095 C264.812,13.899 264.16,14.552 263.355,14.552 L258.017,14.552 C257.208,14.552 256.552,15.207 256.552,16.016 L256.552,21.355 C256.552,22.16 255.9,22.812 255.095,22.812 L252.717,22.812 C251.913,22.812 251.26,22.16 251.26,21.355 L251.26,16.016 C251.26,15.207 250.604,14.552 249.796,14.552 L244.457,14.552 C243.652,14.552 243,13.899 243,13.095 L243,10.717 C243,9.912 243.652,9.26 244.457,9.26 L249.796,9.26 C250.604,9.26 251.26,8.604 251.26,7.795 L251.26,2.457 C251.26,1.652 251.913,1 252.717,1 L255.095,1 C255.9,1 256.552,1.652 256.552,2.457 L256.552,7.795 C256.552,8.604 257.208,9.26 258.017,9.26 L263.355,9.26 C264.16,9.26 264.812,9.912 264.812,10.717" id="plus"></path>
            </g>
        </g>
    </g>
</svg>