<?xml version="1.0" encoding="UTF-8"?>
<svg width="20px" height="23px" viewBox="0 0 20 23" version="1.1" xmlns="http://www.w3.org/2000/svg" xmlns:xlink="http://www.w3.org/1999/xlink">
    <!-- Generator: Sketch 39.1 (31720) - http://www.bohemiancoding.com/sketch -->
    <title>text</title>
    <desc>Created with Sketch.</desc>
    <defs></defs>
    <g id="Page-1" stroke="none" stroke-width="1" fill="none" fill-rule="evenodd">
        <g id="680x680" transform="translate(-290.000000, -607.000000)" fill="#231F1F">
            <g id="Row-8" transform="translate(52.000000, 605.000000)">
                <path d="M238,3.39100439 L238,23.6089956 C238,24.3776543 238.673307,25 239.502421,25 L256.497579,25 C257.326693,25 258,24.3776543 258,23.6089956 L258,3.39100439 C258,2.62234567 257.326693,2 256.497579,2 L239.502421,2 C238.673307,2 238,2.62234567 238,3.39100439 L238,3.39100439 Z M255.258784,23.0000448 L240.741216,23.0000448 C240.331837,23.0000448 240,22.6991757 240,22.3303019 L240,4.6717588 C240,4.30185467 240.331837,4.00201595 240.741216,4.00201595 L255.258784,4.00201595 C255.668163,4.00201595 256,4.30185467 256,4.6717588 L256,22.3303019 C256,22.6991757 255.668163,23.0000448 255.258784,23.0000448 L255.258784,23.0000448 Z M253,8.99052925 C252.998961,9.53760446 252.585553,10 252.076584,10 L244.850255,10 C244.340247,10 243.926839,9.55654596 243.926839,9.00947075 C243.926839,8.46350975 244.340247,8 244.850255,8 L252.076584,8 C252.586592,8 253,8.44345404 253,8.99052925 Z M253,12.9899777 C252.998961,13.5367483 252.585553,14 252.076584,14 L244.850255,14 C244.340247,14 243.926839,13.5567929 243.926839,13.0100223 C243.926839,12.4632517 244.340247,12 244.850255,12 L252.076584,12 C252.586592,12 253,12.4443207 253,12.9899777 Z M252,16.9899777 C252,17.5367483 251.511387,18 250.909829,18 L245.018238,18 C244.415452,18 243.926839,17.5567929 243.926839,17.0100223 C243.926839,16.4632517 244.415452,16 245.018238,16 L250.909829,16 C251.511387,16 252,16.4432071 252,16.9899777 Z" id="text"></path>
            </g>
        </g>
    </g>
</svg>