<?xml version="1.0" encoding="UTF-8"?>
<svg width="14px" height="13px" viewBox="0 0 14 13" version="1.1" xmlns="http://www.w3.org/2000/svg" xmlns:xlink="http://www.w3.org/1999/xlink">
    <!-- Generator: Sketch 39.1 (31720) - http://www.bohemiancoding.com/sketch -->
    <title>calendarday</title>
    <desc>Created with Sketch.</desc>
    <defs></defs>
    <g id="Page-1" stroke="none" stroke-width="1" fill="none" fill-rule="evenodd">
        <g id="edit" transform="translate(-406.000000, -560.000000)" fill="#413F3F">
            <g id="article" transform="translate(364.000000, 48.000000)">
                <g id="date" transform="translate(15.000000, 509.000000)">
                    <path d="M36.9260735,6.10180917 C36.5833542,6.10180917 36.3054275,5.78658992 36.3054275,5.39708743 L36.3054275,3.70472174 C36.3054275,3.31521926 36.5833542,3 36.9260735,3 C37.2682245,3 37.5461512,3.31521926 37.5461512,3.70472174 L37.5461512,5.39708743 C37.5461512,5.78658992 37.2682245,6.10180917 36.9260735,6.10180917 Z M30.1023778,6.10180917 C29.7595014,6.10180917 29.4814473,5.78658992 29.4814473,5.39708743 L29.4814473,3.70472174 C29.4814473,3.31521926 29.7595014,3 30.1023778,3 C30.4446856,3 30.722171,3.31521926 30.722171,3.70472174 L30.722171,5.39708743 C30.722171,5.78658992 30.4446856,6.10180917 30.1023778,6.10180917 Z M38.16086,5.49798906 C38.16086,6.13131071 37.7255809,6.71899319 37.0968442,6.82089983 C36.2960059,6.95031501 35.6044584,6.33824996 35.6044584,5.56613522 L35.6044584,4.61584015 C35.6044584,4.40890089 35.4348691,4.24072367 35.2269652,4.24072367 L31.8647004,4.24072367 C31.6567965,4.24072367 31.4884634,4.40890089 31.4884634,4.61584015 L31.4884634,5.49798906 C31.4884634,6.13131071 31.0531842,6.71899319 30.4244476,6.82089983 C29.6236092,6.95031501 28.9314337,6.33824996 28.9314337,5.56613522 L28.9314337,4.61584015 C28.9314337,4.40890089 28.7631006,4.24072367 28.5545686,4.24072367 L27.908873,4.24072367 C27.4070143,4.24072367 27,4.64522427 27,5.14475438 L27,15.0953441 C27,15.5948742 27.4070143,16 27.908873,16 L39.1187255,16 C39.6205842,16 40.0275985,15.5948742 40.0275985,15.0953441 L40.0275985,5.14475438 C40.0275985,4.64522427 39.6205842,4.24072367 39.1187255,4.24072367 L38.537097,4.24072367 C38.3291931,4.24072367 38.16086,4.40890089 38.16086,4.61584015 L38.16086,5.49798906 Z M38.4315748,14.8027532 L28.5778086,14.8027532 C28.3686484,14.8027532 28.198431,14.6313048 28.198431,14.4206321 L28.198431,7.72465404 C28.198431,7.51398126 28.3686484,7.34253284 28.5778086,7.34253284 L38.4315748,7.34253284 C38.6407349,7.34253284 38.8109524,7.51398126 38.8109524,7.72465404 L38.8109524,14.4206321 C38.8109524,14.6313048 38.6407349,14.8027532 38.4315748,14.8027532 Z M30.9861749,9.93966359 L30.9861749,12.997096 C30.9861749,13.2871984 31.1825678,13.5403078 31.4418998,13.5591288 C31.7268735,13.5792478 31.9628947,13.3287343 31.9628947,13.015917 L31.9628947,10.4225186 L31.9593981,10.4225186 L31.9593981,8.92333178 C31.9593981,8.73577118 31.8224475,8.58325651 31.6540274,8.58325651 L31.3125252,8.58325651 L30.417393,8.87595488 C30.1953582,8.94864273 30.0519972,9.20305018 30.110274,9.45226564 C30.1708819,9.71056709 30.4103997,9.86048576 30.6388449,9.78585092 L30.7583125,9.75664599 C30.8719523,9.71900407 30.9861749,9.82803583 30.9861749,9.93966359 Z M35.3752026,8.58325651 C34.2163039,8.58325651 33.2036183,9.5596046 33.2036183,11.0709465 C33.2036183,12.5829126 34.1667185,13.5461512 35.3688455,13.5461512 L35.3815597,13.5461512 C36.583051,13.5461512 37.5461512,12.5829126 37.5461512,11.0709465 C37.5461512,9.5596046 36.5334657,8.58325651 35.3752026,8.58325651 Z M35.3675741,12.5947736 C34.7839926,12.5947736 34.3084818,12.0291909 34.3084818,11.0540914 C34.3084818,10.0789918 34.8100567,9.54212522 35.3752026,9.54212522 C35.9397128,9.54212522 36.4412878,10.0789918 36.4412878,11.0540914 C36.4412878,12.0291909 35.9511556,12.5947736 35.3675741,12.5947736 L35.3675741,12.5947736 Z" id="calendarday"></path>
                </g>
            </g>
        </g>
    </g>
</svg>