<?xml version="1.0" encoding="UTF-8"?>
<svg width="61px" height="74px" viewBox="0 0 61 74" version="1.1" xmlns="http://www.w3.org/2000/svg" xmlns:xlink="http://www.w3.org/1999/xlink">
    <!-- Generator: Sketch 39.1 (31720) - http://www.bohemiancoding.com/sketch -->
    <title>Combined Shape</title>
    <desc>Created with Sketch.</desc>
    <defs></defs>
    <g id="Page-1" stroke="none" stroke-width="1" fill="none" fill-rule="evenodd">
        <g id="edit" transform="translate(-1233.000000, -141.000000)" fill="#FFFFFF">
            <g id="Welcome-chinese" transform="translate(370.000000, 89.000000)">
                <g id="operate" transform="translate(116.000000, 51.000000)">
                    <path d="M785.495658,61.57839 L781.883605,61.6676653 C781.562113,61.6745326 781.308702,61.918323 781.312485,62.2101846 L781.335178,63.2505856 C781.342743,63.5699166 780.934259,63.751901 780.658154,63.5527483 L776.217787,60.3285353 C775.896296,60.095046 775.888731,59.652103 776.198876,59.4083127 L780.503082,56.0330184 C780.771622,55.8235647 781.183888,55.9918144 781.191452,56.3111454 L781.214146,57.396184 C781.217928,57.6880457 781.478904,57.921535 781.800395,57.921535 L785.298981,57.921535 C787.152286,57.921535 788.309656,56.1016917 787.383004,54.6423834 L785.915489,52.3349594 C785.658295,51.9297867 785.81715,51.4113031 786.267238,51.1846811 L788.181059,50.2301217 C788.627365,50.0069334 789.187139,50.1545811 789.432986,50.5631874 L790.919412,53.0457284 C793.188765,56.8364963 790.24617,61.465079 785.495658,61.57839 L785.495658,61.57839 Z M773.910612,44.1800011 C773.653419,44.5851738 773.082298,44.7190868 772.639774,44.4752964 L770.77134,43.4520638 C770.336381,43.2117071 770.20022,42.6966571 770.464978,42.3017855 L772.091347,39.8913515 C774.572506,36.2104608 780.457695,36.2070272 782.942636,39.8844841 L784.833764,42.6829225 C785.000183,42.9301465 785.359497,43.0091208 785.635602,42.8580395 L786.615206,42.3223875 C786.917786,42.1575715 787.296012,42.3876271 787.24306,42.7035245 L786.384488,47.8059531 C786.323972,48.1767891 785.907924,48.4034111 785.518352,48.2797991 L780.14755,46.5835678 C779.814712,46.4805578 779.769325,46.0685178 780.071905,45.9037018 L781.093114,45.3440141 C781.369218,45.1929328 781.459992,44.8736018 781.301138,44.6195104 L779.549954,41.8691435 C778.623301,40.4132688 776.308561,40.4132688 775.381909,41.8691435 L773.910612,44.1800011 L773.910612,44.1800011 Z M773.018,60.517387 C773.006653,60.980932 772.586823,61.3483343 772.076218,61.3380333 L768.963423,61.2624926 C764.21291,61.1526153 761.266534,56.5274663 763.532105,52.7332647 L765.256813,49.8489847 C765.408103,49.5914597 765.305982,49.2721287 765.022313,49.1279147 L764.020016,48.6265994 C763.713653,48.4720844 763.743911,48.0600444 764.069185,47.9432998 L769.368124,46.0650841 C769.750132,45.9311711 770.177526,46.1440584 770.253171,46.5114608 L771.319767,51.5829864 C771.387848,51.8954501 771.020969,52.1358067 770.710824,51.9812917 L769.66314,51.4559407 C769.383253,51.3151604 769.031503,51.4044357 768.872648,51.6585271 L767.121464,54.408894 C766.194812,55.8647687 767.352182,57.684612 769.205487,57.684612 L772.144299,57.684612 C772.658686,57.684612 773.074734,58.0691827 773.063387,58.5361613 L773.018,60.517387 L773.018,60.517387 Z M800.129202,26.3249346 L754.829136,26.3249346 C752.718638,26.3249346 751.06201,27.9593599 751.239776,29.8684786 L755.08633,71.6802372 C755.230055,73.2803259 756.705135,74.5095785 758.471448,74.5095785 L796.483109,74.5095785 C798.249422,74.5095785 799.724501,73.2803259 799.872009,71.6802372 L803.718562,29.8684786 C803.892546,27.9593599 802.235918,26.3249346 800.129202,26.3249346 Z M777.506997,20.5998649 L803.793668,20.5998649 C806.119754,20.5998649 807.712084,18.6529759 807.053971,16.6271126 L805.442731,11.102343 C805.075852,9.98296768 804.130288,9.25159668 802.832975,9.02154102 C801.539444,8.78805169 791.56942,7.97770636 789.148777,7.84379336 C788.055705,7.79572203 787.3749,6.9647747 787.204698,6.47719404 C787.030714,5.98961337 785.896038,3.73026073 785.188756,2.91648173 C784.867265,2.54564573 783.39975,1.80740741 777.491868,1.80740741 C771.580203,1.80740741 770.146729,2.54564573 769.825237,2.91648173 C769.117956,3.73026073 767.983279,5.98961337 767.809295,6.47719404 C767.639094,6.9647747 766.96207,7.79572203 765.865216,7.84379336 C763.444573,7.97770636 753.47455,8.78805169 752.181018,9.02154102 C750.887487,9.25159668 749.941924,9.98296768 749.571263,11.102343 L747.960022,16.6271126 C747.30191,18.6529759 748.894239,20.5998649 751.220326,20.5998649 L777.506997,20.5998649 Z" id="Combined-Shape"></path>
                </g>
            </g>
        </g>
    </g>
</svg>