<?xml version="1.0" encoding="UTF-8"?>
<svg width="68px" height="68px" viewBox="0 0 68 68" version="1.1" xmlns="http://www.w3.org/2000/svg" xmlns:xlink="http://www.w3.org/1999/xlink">
    <!-- Generator: Sketch 39.1 (31720) - http://www.bohemiancoding.com/sketch -->
    <title>Combined Shape</title>
    <desc>Created with Sketch.</desc>
    <defs></defs>
    <g id="Page-1" stroke="none" stroke-width="1" fill="none" fill-rule="evenodd">
        <g id="edit" transform="translate(-486.000000, -140.000000)" fill="#FFFFFF">
            <g id="Welcome-chinese" transform="translate(370.000000, 89.000000)">
                <g id="operate" transform="translate(116.000000, 51.000000)">
                    <path d="M29.0394622,47.9678605 L18.4294641,51.6968356 C17.3819164,52.0662152 16.377301,51.0372291 16.7379322,49.9642693 L20.3785898,39.0968867 C20.6333213,38.3317432 21.5835558,38.1060112 22.1445376,38.6776701 L29.4458878,46.159073 C30.0068696,46.7307319 29.7864839,47.7040179 29.0394622,47.9678605 Z M33.2966605,44.1804194 C32.5582252,44.9367682 31.3847428,44.9572893 30.6720669,44.2273248 L23.8515583,37.2413596 C23.1417446,36.5143267 23.1617796,35.3094456 23.8973527,34.5560285 L48.1512302,9.71378397 C48.8896655,8.95743525 50.0631479,8.93691416 50.7758238,9.66687862 L57.5934702,16.6499122 C58.3061461,17.3798767 58.286111,18.5847578 57.5505379,19.3381749 L33.2966605,44.1804194 Z M66.1021739,10.9523986 L62.1037473,15.0478217 C61.3653121,15.8041704 60.1717946,15.8041704 59.4333594,15.0478217 L52.3810164,7.82146665 C51.6425812,7.06804951 51.6425812,5.8455789 52.3810164,5.08923018 L56.379443,0.993807045 C57.6731358,-0.331269015 59.7710933,-0.331269015 61.0619239,0.993807045 L66.1021739,6.15339524 C67.3958667,7.4784713 67.3958667,9.62732252 66.1021739,10.9523986 Z M38.5400555,8.93208808 C38.5400555,7.39300638 37.3207787,6.08845141 35.8181488,6.08845141 L5.06146161,6.08845141 C2.76315342,6.08845141 0.899892357,7.99691272 0.899892357,10.3509748 L0.899892357,63.5181859 C0.899892357,65.8693165 2.76315342,67.7777778 5.06146161,67.7777778 L56.9694533,67.7777778 C59.2677615,67.7777778 61.1281604,65.8693165 61.1281604,63.5181859 L61.1281604,31.9538188 C61.1281604,30.4147371 59.8459163,29.1658822 58.3432864,29.1658822 C56.8406565,29.1658822 55.6213797,30.4147371 55.6213797,31.9538188 L55.6213797,59.9768322 C55.6213797,61.2520713 54.61104,62.2869206 53.3660038,62.2869206 L8.50749282,62.2869206 C7.26245663,62.2869206 6.24925476,61.2520713 6.24925476,59.9768322 L6.24925476,14.030113 C6.24925476,12.7519423 7.26245663,11.7170931 8.50749282,11.7170931 L35.8181488,11.7170931 C37.3207787,11.7170931 38.5400555,10.4711698 38.5400555,8.93208808 Z" id="Combined-Shape"></path>
                </g>
            </g>
        </g>
    </g>
</svg>