<?xml version="1.0" encoding="UTF-8"?>
<svg width="67px" height="68px" viewBox="0 0 67 68" version="1.1" xmlns="http://www.w3.org/2000/svg" xmlns:xlink="http://www.w3.org/1999/xlink">
    <!-- Generator: Sketch 39.1 (31720) - http://www.bohemiancoding.com/sketch -->
    <title>Combined-Shape</title>
    <desc>Created with Sketch.</desc>
    <defs></defs>
    <g id="Page-1" stroke="none" stroke-width="1" fill="none" fill-rule="evenodd">
        <path d="M28.1395698,47.9678605 L17.5295717,51.6968356 C16.482024,52.0662152 15.4774086,51.0372291 15.8380398,49.9642693 L19.4786974,39.0968867 C19.7334289,38.3317432 20.6836634,38.1060112 21.2446452,38.6776701 L28.5459954,46.159073 C29.1069772,46.7307319 28.8865915,47.7040179 28.1395698,47.9678605 L28.1395698,47.9678605 Z M32.3967681,44.1804194 C31.6583328,44.9367682 30.4848504,44.9572893 29.7721745,44.2273248 L22.9516659,37.2413596 C22.2418522,36.5143267 22.2618872,35.3094456 22.9974603,34.5560285 L47.2513378,9.71378397 C47.9897731,8.95743525 49.1632555,8.93691416 49.8759314,9.66687862 L56.6935778,16.6499122 C57.4062537,17.3798767 57.3862186,18.5847578 56.6506455,19.3381749 L32.3967681,44.1804194 L32.3967681,44.1804194 Z M65.2022815,10.9523986 L61.2038549,15.0478217 C60.4654197,15.8041704 59.2719022,15.8041704 58.533467,15.0478217 L51.481124,7.82146665 C50.7426888,7.06804951 50.7426888,5.8455789 51.481124,5.08923018 L55.4795506,0.993807045 C56.7732434,-0.331269015 58.8712009,-0.331269015 60.1620315,0.993807045 L65.2022815,6.15339524 C66.4959743,7.4784713 66.4959743,9.62732252 65.2022815,10.9523986 L65.2022815,10.9523986 Z M37.6401631,8.93208808 C37.6401631,7.39300638 36.4208863,6.08845141 34.9182564,6.08845141 L4.16156925,6.08845141 C1.86326106,6.08845141 0,7.99691272 0,10.3509748 L0,63.5181859 C0,65.8693165 1.86326106,67.7777778 4.16156925,67.7777778 L56.0695609,67.7777778 C58.3678691,67.7777778 60.228268,65.8693165 60.228268,63.5181859 L60.228268,31.9538188 C60.228268,30.4147371 58.9460239,29.1658822 57.443394,29.1658822 C55.9407641,29.1658822 54.7214873,30.4147371 54.7214873,31.9538188 L54.7214873,59.9768322 C54.7214873,61.2520713 53.7111476,62.2869206 52.4661114,62.2869206 L7.60760046,62.2869206 C6.36256427,62.2869206 5.3493624,61.2520713 5.3493624,59.9768322 L5.3493624,14.030113 C5.3493624,12.7519423 6.36256427,11.7170931 7.60760046,11.7170931 L34.9182564,11.7170931 C36.4208863,11.7170931 37.6401631,10.4711698 37.6401631,8.93208808 L37.6401631,8.93208808 Z" id="Combined-Shape" fill="#676767"></path>
    </g>
</svg>