<?xml version="1.0" encoding="UTF-8"?>
<svg width="61px" height="64px" viewBox="0 0 61 64" version="1.1" xmlns="http://www.w3.org/2000/svg" xmlns:xlink="http://www.w3.org/1999/xlink">
    <!-- Generator: Sketch 39.1 (31720) - http://www.bohemiancoding.com/sketch -->
    <title>Fill-41</title>
    <desc>Created with Sketch.</desc>
    <defs></defs>
    <g id="Page-1" stroke="none" stroke-width="1" fill="none" fill-rule="evenodd">
        <path d="M6.257413,52.8074001 L33.492803,52.7805518 C34.871568,52.7805518 35.986802,53.9005093 35.986802,55.2851142 L35.986802,61.958833 C35.986802,63.7078076 38.018667,64.6628398 39.35542,63.5428824 L59.124089,46.9928267 C60.457022,45.8767048 60.457022,43.8208925 59.124089,42.7047706 L39.35542,26.1547149 C38.018667,25.0347575 35.986802,25.9897897 35.986802,27.7387643 L35.986802,34.3587866 C35.986802,35.7433914 34.871568,36.8633489 33.496622,36.8633489 L19.063508,36.8633489 C17.688561,36.8633489 16.573327,35.7433914 16.573327,34.3587866 L16.573327,19.2547033 C16.573327,17.8739339 17.688561,16.7539765 19.063508,16.7539765 L52.363937,16.7539765 C53.952764,16.7539765 55.239866,15.4575874 55.239866,13.8620317 L55.239866,3.7363893 C55.239866,2.1408335 53.952764,0.8444444 52.363937,0.8444444 L6.253593,0.8444444 C3.201977,0.8444444 0.730893,3.3259939 0.730893,6.3905349 L0.730893,47.2613097 C0.730893,50.3258507 3.205796,52.8112356 6.257413,52.8074001" id="Fill-41" fill="#000000"></path>
    </g>
</svg>