<?xml version="1.0" encoding="UTF-8"?>
<svg width="61px" height="64px" viewBox="0 0 61 64" version="1.1" xmlns="http://www.w3.org/2000/svg" xmlns:xlink="http://www.w3.org/1999/xlink">
    <!-- Generator: Sketch 39.1 (31720) - http://www.bohemiancoding.com/sketch -->
    <title>Fill 41</title>
    <desc>Created with Sketch.</desc>
    <defs></defs>
    <g id="Page-1" stroke="none" stroke-width="1" fill="none" fill-rule="evenodd">
        <g id="edit" transform="translate(-1063.000000, -150.000000)" fill="#FFFFFF">
            <g id="Welcome-chinese" transform="translate(370.000000, 89.000000)">
                <g id="operate" transform="translate(116.000000, 51.000000)">
                    <path d="M583.257413,62.8074001 L610.492803,62.7805518 C611.871568,62.7805518 612.986802,63.9005093 612.986802,65.2851142 L612.986802,71.958833 C612.986802,73.7078076 615.018667,74.6628398 616.35542,73.5428824 L636.124089,56.9928267 C637.457022,55.8767048 637.457022,53.8208925 636.124089,52.7047706 L616.35542,36.1547149 C615.018667,35.0347575 612.986802,35.9897897 612.986802,37.7387643 L612.986802,44.3587866 C612.986802,45.7433914 611.871568,46.8633489 610.496622,46.8633489 L596.063508,46.8633489 C594.688561,46.8633489 593.573327,45.7433914 593.573327,44.3587866 L593.573327,29.2547033 C593.573327,27.8739339 594.688561,26.7539765 596.063508,26.7539765 L629.363937,26.7539765 C630.952764,26.7539765 632.239866,25.4575874 632.239866,23.8620317 L632.239866,13.7363893 C632.239866,12.1408335 630.952764,10.8444444 629.363937,10.8444444 L583.253593,10.8444444 C580.201977,10.8444444 577.730893,13.3259939 577.730893,16.3905349 L577.730893,57.2613097 C577.730893,60.3258507 580.205796,62.8112356 583.257413,62.8074001" id="Fill-41"></path>
                </g>
            </g>
        </g>
    </g>
</svg>