<?xml version="1.0" encoding="UTF-8"?>
<svg width="586px" height="182px" viewBox="0 0 586 182" version="1.1" xmlns="http://www.w3.org/2000/svg" xmlns:xlink="http://www.w3.org/1999/xlink">
    <!-- Generator: Sketch 39.1 (31720) - http://www.bohemiancoding.com/sketch -->
    <title>Page.qy</title>
    <desc>Created with Sketch.</desc>
    <defs>
        <radialGradient cx="51.9058408%" cy="-72.8757801%" fx="51.9058408%" fy="-72.8757801%" r="241.882779%" id="radialGradient-1">
            <stop stop-color="#55CBF2" offset="0%"></stop>
            <stop stop-color="#2F81ED" offset="100%"></stop>
        </radialGradient>
        <path d="M384.578125,391.25 L383.734375,394.90625 C386.546889,397.062511 389.406235,398.140625 392.3125,398.140625 C397.093774,398.140625 401.195295,395.86721 404.617188,391.320312 C408.03908,386.773415 409.75,381.359406 409.75,375.078125 C409.75,368.609343 407.640646,363.40627 403.421875,359.46875 C399.203104,355.53123 393.625035,353.5625 386.6875,353.5625 C378.906211,353.5625 372.156279,355.671854 366.4375,359.890625 C361.187474,363.734394 358.5625,367.906227 358.5625,372.40625 C358.5625,374.37501 359.59374,376.015618 361.65625,377.328125 C363.71876,378.640632 364.75,379.578122 364.75,380.140625 C364.75,381.453132 364.375004,382.57812 363.625,383.515625 C362.874996,384.45313 361.890631,384.921875 360.671875,384.921875 C357.57811,384.921875 354.859387,383.609388 352.515625,380.984375 C350.171863,378.359362 349,375.312517 349,371.84375 C349,364.343712 352.703088,357.828153 360.109375,352.296875 C367.515662,346.765597 376.281199,344 386.40625,344 C396.906302,344 405.296844,346.812472 411.578125,352.4375 C417.859406,358.062528 421,365.609328 421,375.078125 C421,383.98442 418.140654,391.718717 412.421875,398.28125 C406.703096,404.843783 399.906289,408.125 392.03125,408.125 C389.781239,408.125 388.164067,407.984376 387.179688,407.703125 C386.195308,407.421874 384.296889,406.578132 381.484375,405.171875 C380.078118,410.796903 378.718757,416.374972 377.40625,421.90625 C373.46873,434.468813 367.140669,440.75 358.421875,440.75 C356.359365,440.75 354.929691,440.281255 354.132812,439.34375 C353.335934,438.406245 352.562504,436.296891 351.8125,433.015625 L351.109375,429.5 C353.453137,429.968752 355.14062,430.203125 356.171875,430.203125 C359.453141,430.203125 362.101552,428.038108 364.117188,423.708008 C366.132823,419.377908 368.406237,411.234923 370.9375,399.278809 C372.90626,390.242142 374.453119,383.605734 375.578125,379.369385 C377.359384,372.874235 379.468738,366.943874 381.90625,361.578125 L387.25,361.578125 L391.046875,361.578125 C391.98438,361.859376 392.734372,362.046875 393.296875,362.140625 C391.984368,365.328141 390.671882,369.007792 389.359375,373.179688 C388.046868,377.351583 386.453134,383.374961 384.578125,391.25 L384.578125,391.25 Z M505.29062,413.75 L505.29062,425.641602 C494.415565,435.620167 485.884401,440.609375 479.69687,440.609375 C476.790605,440.609375 474.845312,439.519176 473.860932,437.338745 C472.876552,435.158314 472.38437,432.584243 472.38437,429.616455 L472.38437,427.25 C467.884347,432.218775 464.157822,435.68749 461.204682,437.65625 C458.251543,439.62501 455.368759,440.609375 452.556245,440.609375 C448.337474,440.609375 444.657823,438.617207 441.517182,434.632812 C438.376542,430.648418 436.806245,425.937527 436.806245,420.5 C436.806245,410.374949 439.993713,401.609412 446.368745,394.203125 C452.275024,387.359341 458.696835,383.9375 465.63437,383.9375 C468.446884,383.9375 471.001546,384.640618 473.298432,386.046875 C475.595319,387.453132 477.774985,389.70311 479.837495,392.796875 L482.22812,383.9375 L493.899995,383.9375 L486.587495,413.609375 C485.931242,415.932629 485.368747,418.418078 484.899995,421.065796 C484.431243,423.713514 484.19687,425.548579 484.19687,426.571045 C484.19687,428.33619 484.759364,429.21875 485.88437,429.21875 C487.384377,429.21875 489.84529,427.848402 493.267182,425.107666 C496.689074,422.36693 500.696847,418.581079 505.29062,413.75 L505.29062,413.75 Z M474.691499,415.450684 L477.870942,401.375 C474.683426,397.624981 472.574072,395.328129 471.542817,394.484375 C470.04281,393.265619 468.449076,392.65625 466.761567,392.65625 C462.26008,392.65625 458.2047,395.210912 454.595307,400.320312 C450.985914,405.429713 449.181245,411.171843 449.181245,417.546875 C449.181245,421.578145 449.838953,424.835925 451.154389,427.320312 C452.469826,429.8047 454.207845,431.046875 456.368501,431.046875 C459.188339,431.046875 462.571362,428.98586 466.517671,424.86377 C469.242294,421.772934 471.966876,418.63527 474.691499,415.450684 L474.691499,415.450684 Z M555.26874,437.515625 L557.378115,427.390625 L555.26874,429.640625 C551.23747,433.765646 547.839066,436.671867 545.073427,438.359375 C542.307788,440.046883 539.612503,440.890625 536.98749,440.890625 C532.487467,440.890625 528.784379,438.968769 525.878115,435.125 C522.97185,431.281231 521.51874,426.40628 521.51874,420.5 C521.51874,411.124953 524.474765,402.734412 530.386904,395.328125 C536.299043,387.921838 543.056299,384.21875 550.658876,384.21875 C553.191604,384.21875 555.326226,384.781977 557.062807,385.908447 C558.799388,387.034918 561.262864,389.427716 564.45331,393.086914 L566.42206,384.227539 L577.909365,384.21875 L568.48749,429.921875 C569.799996,428.98437 571.581228,427.437511 573.83124,425.28125 C580.862525,418.718717 584.987484,414.875006 586.20624,413.75 L586.20624,425.703125 C579.456206,431.140652 572.753148,436.531223 566.096865,441.875 C564.409356,451.437548 562.229691,458.18748 559.557802,462.125 C556.885914,466.06252 553.018765,468.03125 547.95624,468.03125 C544.11247,468.03125 540.854691,466.882824 538.182802,464.585938 C535.510914,462.289051 534.17499,459.734389 534.17499,456.921875 C534.17499,454.203111 535.440602,451.531263 537.971865,448.90625 C539.378122,447.406243 543.831202,444.359398 551.33124,439.765625 L555.26874,437.515625 Z M553.01874,448.0625 C550.487477,449.468757 548.354686,450.89843 546.620302,452.351562 C544.885919,453.804695 544.01874,455.140619 544.01874,456.359375 C544.01874,457.578131 544.299987,458.562496 544.86249,459.3125 C545.424993,460.062504 546.315609,460.4375 547.534365,460.4375 C548.378119,460.4375 549.245298,459.523447 550.135927,457.695312 C551.026557,455.867178 551.987485,452.656273 553.01874,448.0625 L553.01874,448.0625 Z M560.335634,413.75 L562.851503,402.245117 C560.780204,399.519029 559.273627,397.685796 558.331728,396.745361 C555.977712,394.206774 553.670606,392.9375 551.410341,392.9375 C547.642744,392.9375 544.017292,394.859356 540.533876,398.703125 C536.107096,403.578149 533.89374,410.093709 533.89374,418.25 C533.89374,422.093769 534.549983,425.234363 535.86249,427.671875 C537.174996,430.109387 538.910086,431.328125 541.067812,431.328125 C543.130322,431.328125 545.802171,429.875015 549.083437,426.96875 C551.6147,424.812489 554.052908,422.23439 556.398134,419.234375 L558.788759,416.28125 C559.257512,415.812498 559.726257,415.10938 560.195009,414.171875 C560.195009,414.078125 560.241884,413.937501 560.335634,413.75 L560.335634,413.75 Z M659.668735,413.75 L659.668735,425.5625 C645.231162,435.968802 631.215678,441.171875 617.62186,441.171875 C612.653085,441.171875 608.879685,439.132833 606.301547,435.054688 C603.723409,430.976542 602.43436,426.359401 602.43436,421.203125 C602.43436,410.984324 605.481204,401.914102 611.574985,393.992188 C617.668765,386.070273 624.699945,382.109375 632.668735,382.109375 C640.168772,382.109375 643.918735,385.671839 643.918735,392.796875 C643.918735,399.171907 640.637517,404.749976 634.074985,409.53125 C630.606217,412.062513 624.981273,414.921859 617.199985,418.109375 L614.24686,419.375 L614.24686,419.9375 C614.24686,423.125016 614.762479,425.703115 615.793735,427.671875 C617.293742,430.57814 619.684343,432.03125 622.96561,432.03125 C628.590638,432.03125 634.262456,430.601577 639.981235,427.742188 C645.700013,424.882798 652.262448,420.218782 659.668735,413.75 L659.668735,413.75 Z M615.65311,410.09375 C621.465639,407.937489 626.106217,405.429702 629.574985,402.570312 C633.043752,399.710923 634.77811,396.875014 634.77811,394.0625 C634.77811,391.99999 633.699995,390.96875 631.543735,390.96875 C628.449969,390.96875 625.309375,392.867169 622.12186,396.664062 C618.934344,400.460956 616.778115,404.937474 615.65311,410.09375 L615.65311,410.09375 Z M685.037479,438.78125 C685.037479,435.499984 685.506225,432.734386 686.443729,430.484375 C688.131238,426.359354 691.037459,424.296875 695.162479,424.296875 C696.662487,424.296875 697.83435,424.484373 698.678104,424.859375 C699.521859,425.234377 699.943729,426.124993 699.943729,427.53125 C699.943729,428.843757 699.193737,431.890601 697.693729,436.671875 C696.849975,439.296888 696.193732,440.749999 695.724979,441.03125 C695.443728,441.218751 694.623424,441.406249 693.264042,441.59375 C691.90466,441.781251 690.803109,441.875 689.959354,441.875 C686.678088,441.875 685.037479,440.84376 685.037479,438.78125 L685.037479,438.78125 Z M755.733617,468.292725 L763.760228,428.076172 C755.061942,436.712934 748.42114,441.03125 743.837621,441.03125 C739.535353,441.03125 735.887929,439.06252 732.895238,435.125 C729.902547,431.18748 728.406224,426.359404 728.406224,420.640625 C728.406224,409.953072 731.87494,400.953162 738.812474,393.640625 C744.812504,387.359344 750.906193,384.21875 757.093724,384.21875 C761.874998,384.21875 766.6562,387.171845 771.437474,393.078125 L773.406224,384.21875 L785.078099,384.21875 L773.382054,438.893311 L795.772191,413.756592 L795.772191,425.703125 L769.974095,454.170898 L767.445043,468.301514 L755.733617,468.292725 Z M766.656224,415.15625 L769.468724,402.359375 C765.718706,396.171844 761.874994,393.078125 757.937474,393.078125 C753.531202,393.078125 749.593742,395.656224 746.124974,400.8125 C742.656207,405.968776 740.921849,411.828092 740.921849,418.390625 C740.921849,422.234394 741.60153,425.351551 742.960912,427.742188 C744.320294,430.132824 746.078088,431.328125 748.234349,431.328125 C751.984368,431.328125 758.124932,425.937554 766.656224,415.15625 L766.656224,415.15625 Z M819.587469,388.296875 L821.134344,384.21875 L833.087469,384.21875 C829.806203,393.218795 827.392164,400.601534 825.845282,406.367188 C824.298399,412.132841 823.524969,416.984355 823.524969,420.921875 C823.524969,425.796899 824.502743,428.234375 826.458319,428.234375 C829.903648,428.234375 834.04765,425.744898 838.890448,420.765869 C842.521813,417.102277 845.781058,412.968529 848.66828,408.364502 L855.108465,384.343994 L866.556219,384.359375 L855.587469,428.234375 C858.306233,426.763665 862.571815,423.958517 868.384344,419.818848 C872.321864,417.060533 875.18121,415.037604 876.962469,413.75 L876.962469,425.703125 C875.649963,426.453129 873.774981,427.671867 871.337469,429.359375 C867.4937,431.984388 862.94687,434.656236 857.696844,437.375 L853.056219,439.90625 C851.087459,449.000045 848.50936,455.890602 845.321844,460.578125 C841.665576,465.828151 837.25937,468.453125 832.103094,468.453125 C828.540576,468.453125 825.353108,467.515634 822.540594,465.640625 C819.72808,463.765616 818.321844,461.609387 818.321844,459.171875 C818.321844,453.265595 825.353024,445.437549 839.415594,435.6875 L842.368719,433.71875 L844.618719,425.5625 C840.77495,430.062523 836.556242,433.531238 831.962469,435.96875 C827.837448,438.125011 823.853113,439.203125 820.009344,439.203125 C816.915579,439.203125 814.712476,436.625026 813.399969,431.46875 C812.556215,428.093733 812.134344,424.250022 812.134344,419.9375 C812.134344,413.093716 814.618694,402.546946 819.587469,388.296875 L819.587469,388.296875 Z M839.696844,447.21875 L840.259344,444.828125 C831.915552,450.734405 827.743719,454.999987 827.743719,457.625 C827.743719,459.875011 829.243704,461 832.243719,461 C834.024978,461 835.454651,460.015635 836.532782,458.046875 C837.610912,456.078115 838.665589,452.468776 839.696844,447.21875 L839.696844,447.21875 Z" id="path-2"></path>
        <filter x="-50%" y="-50%" width="200%" height="200%" filterUnits="objectBoundingBox" id="filter-3">
            <feOffset dx="0" dy="5" in="SourceAlpha" result="shadowOffsetOuter1"></feOffset>
            <feGaussianBlur stdDeviation="15" in="shadowOffsetOuter1" result="shadowBlurOuter1"></feGaussianBlur>
            <feColorMatrix values="0 0 0 0 0.0463417508   0 0 0 0 0.217474034   0 0 0 0 0.442867772  0 0 0 0.186424366 0" type="matrix" in="shadowBlurOuter1"></feColorMatrix>
        </filter>
    </defs>
    <g id="Page-1" stroke="none" stroke-width="1" fill="none" fill-rule="evenodd">
        <g id="Desktop-HD" transform="translate(-320.000000, -320.000000)">
            <g id="Page.qy">
                <use fill="black" fill-opacity="1" filter="url(#filter-3)" xlink:href="#path-2"></use>
                <use fill="url(#radialGradient-1)" fill-rule="evenodd" xlink:href="#path-2"></use>
            </g>
        </g>
    </g>
</svg>