<?xml version="1.0" encoding="UTF-8"?>
<svg width="66px" height="65px" viewBox="0 0 66 65" version="1.1" xmlns="http://www.w3.org/2000/svg" xmlns:xlink="http://www.w3.org/1999/xlink">
    <!-- Generator: Sketch 39.1 (31720) - http://www.bohemiancoding.com/sketch -->
    <title>pencil brush</title>
    <desc>Created with Sketch.</desc>
    <defs></defs>
    <g id="Page-1" stroke="none" stroke-width="1" fill="none" fill-rule="evenodd">
        <g id="edit" transform="translate(-31.000000, -594.000000)">
            <g id="bar">
                <g id="edit" transform="translate(0.000000, 565.000000)">
                    <g id="pencil-brush" transform="translate(31.000000, 29.000000)">
                        <g id="Layer_1">
                            <g id="pencil_brush">
                                <g id="Group" transform="translate(0.000000, 0.888672)">
                                    <path d="M1.72068084,1.66143555 C3.84358055,-0.454619141 7.28698202,-0.454619141 9.40988173,1.66143555 L49.7878116,41.8686328 L42.0965709,49.5256836 L1.72068084,9.31848633 C-0.404258647,7.20446289 -0.404258647,3.77545898 1.72068084,1.66143555 L1.72068084,1.66143555 Z" id="Shape" fill="#ED5564"></path>
                                    <path d="M3.8754521,5.72304688 C4.40719691,5.19352539 5.26747359,5.19352539 5.79921841,5.72304688 L46.9618256,46.7135449 C47.4914032,47.2410352 47.4914032,48.0978418 46.9618256,48.6273633 C46.6948696,48.8910449 46.3483622,49.0239648 45.9999425,49.0239648 C45.6513953,49.0239648 45.3047604,48.8910449 45.0379318,48.6273633 L3.8754521,7.63673828 C3.34574706,7.1072168 3.34574706,6.25053711 3.8754521,5.72304688 L3.8754521,5.72304688 Z" id="Shape" fill="#DA4453"></path>
                                    <path d="M40.6467982,50.7017773 C40.6467982,62.2339453 57.7220409,63.1482617 63.3700607,63.1482617 C69.0159132,63.1482617 61.0977472,56.3260547 61.0977472,50.7017773 C61.0977472,45.077373 56.5192089,40.5201367 50.8711891,40.5201367 C45.2231693,40.5201367 40.6467982,45.077373 40.6467982,50.7017773 L40.6467982,50.7017773 Z" id="Shape" fill="#656D78"></path>
                                    <path d="M63.3700607,63.1482617 C57.7220409,63.1482617 40.6467982,62.2339453 40.6467982,50.7017773 C40.6467982,49.1430469 40.9992975,47.6654395 41.6267844,46.3447461 C41.6288242,46.3447461 42.4891008,60.942959 65.3198342,61.2880176 L65.3198342,61.2880176 C65.6004313,62.4382129 65.1903082,63.1482617 63.3700607,63.1482617 L63.3700607,63.1482617 Z" id="Shape" fill="#434A54"></path>
                                </g>
                                <g id="Group" transform="translate(0.127486, 0.000000)">
                                    <path d="M62.8760518,2.38557617 C59.6896624,-0.785585937 54.5257076,-0.785585937 51.3391908,2.38557617 L51.3391908,2.38557617 L51.3391908,2.38557617 L0.00790414257,53.5041406 L0.00790414257,64.9927637 L11.5427254,64.9927637 L62.8760518,13.8740723 C66.0624411,10.7010059 66.0624411,5.55864258 62.8760518,2.38557617 L62.8760518,2.38557617 Z" id="Shape" fill="#F6BB42"></path>
                                    <path d="M60.9543253,15.7878906 L62.8760518,13.8740723 C66.0624411,10.7010059 66.0624411,5.55864258 62.8760518,2.38557617 C59.6896624,-0.785585937 54.5257076,-0.785585937 51.3391908,2.38557617 L51.3391908,2.38557617 L49.4174643,4.30129883 L60.9543253,15.7878906 L60.9543253,15.7878906 Z" id="Shape" fill="#EC87C0"></path>
                                    <path d="M54.2328719,9.09657227 L9.62890297,53.5121387 L9.62890297,53.5121387 C9.09919793,54.0416602 9.09919793,54.8984668 9.62890297,55.4279883 C10.1606478,55.9554785 11.0209245,55.9554785 11.5526693,55.4279883 L56.1547259,11.0105176 L54.2328719,9.09657227 L54.2328719,9.09657227 Z" id="Shape" fill="#FFCE54"></path>
                                    <polygon id="Shape" fill="#FFE5AB" points="0.00790414257 53.5041406 0.00790414257 64.9927637 11.5428528 64.9927637"></polygon>
                                    <polygon id="Shape" fill="#E6E9ED" points="53.2709887 23.4549707 41.7341277 11.968252 49.4252409 4.30916992 60.9623569 15.797793"></polygon>
                                    <path d="M48.4653975,9.09657227 L46.5416312,7.18084961 C46.5395914,7.17881836 46.5356394,7.17691406 46.5337271,7.17297852 L44.6120005,9.08666992 C44.6140403,9.09060547 44.6159526,9.09263672 44.6199047,9.09657227 L46.5416312,11.0103906 C47.073376,11.5399121 47.9337802,11.5399121 48.4653975,11.0103906 C48.9952301,10.4829004 48.9952301,9.62418945 48.4653975,9.09657227 L48.4653975,9.09657227 Z" id="Shape" fill="#CCD1D9"></path>
                                    <path d="M54.2150238,18.6516992 L56.1387901,20.5674219 C56.1408299,20.5694531 56.144782,20.5713574 56.1466943,20.575293 L58.0685483,18.6616016 C58.0665085,18.657666 58.0645962,18.6556348 58.0606442,18.6516992 L56.1387901,16.7378809 C55.6071728,16.2083594 54.7467686,16.2083594 54.2150238,16.7378809 C53.6851913,17.2653711 53.6851913,18.124209 54.2150238,18.6516992 L54.2150238,18.6516992 Z" id="Shape" fill="#CCD1D9"></path>
                                    <polygon id="Shape" fill="#656D78" points="0.00790414257 61.1632227 0.00790414257 64.9927637 3.85365196 64.9927637"></polygon>
                                </g>
                            </g>
                        </g>
                    </g>
                </g>
            </g>
        </g>
    </g>
</svg>