<?xml version="1.0" encoding="UTF-8"?>
<svg width="70px" height="71px" viewBox="0 0 70 71" version="1.1" xmlns="http://www.w3.org/2000/svg" xmlns:xlink="http://www.w3.org/1999/xlink">
    <!-- Generator: Sketch 39.1 (31720) - http://www.bohemiancoding.com/sketch -->
    <title>rocket_3</title>
    <desc>Created with Sketch.</desc>
    <defs></defs>
    <g id="Page-1" stroke="none" stroke-width="1" fill="none" fill-rule="evenodd">
        <g id="edit" transform="translate(-21.000000, -776.000000)">
            <g id="bar">
                <g id="options" transform="translate(0.000000, 750.000000)">
                    <g id="rocket_3" transform="translate(21.000000, 26.000000)">
                        <g id="Layer_1">
                            <g id="rocket_3">
                                <path d="M2.48431907,67.6391424 C2.97799611,66.2417097 3.62066148,64.465017 4.33986381,62.6239942 C7.04657588,55.6777059 8.48089494,53.6010343 9.0979572,52.9815991 C10.0214397,52.0492915 11.1663619,51.4213521 12.4090661,51.1619739 L12.8388716,51.0719939 L17.6522568,46.1683605 L23.4145914,52.8722789 L18.9332296,57.1951576 L18.8395331,57.638885 C18.5841829,58.8905117 17.9585409,60.0435171 17.0350584,60.9780193 C16.4179961,61.5952599 14.3581712,63.0439921 7.46357977,65.7682176 C5.63377432,66.4903891 3.86743191,67.1419208 2.48431907,67.6391424 L2.48431907,67.6391424 Z" id="Shape" fill="#FFCE54"></path>
                                <path d="M17.7247082,44.0209119 L12.1154475,49.7325819 C10.6556615,50.03695 9.23836576,50.7762671 8.07233463,51.9508073 C5.09324903,54.9511452 0.135097276,70.0030366 0.135097276,70.0030366 C0.135097276,70.0030366 15.0775097,65.0114807 18.0608171,62.0088111 C19.2226265,60.8364655 19.9589883,59.4069363 20.2610506,57.9346118 L25.4105447,52.966511 L17.7247082,44.0209119 L17.7247082,44.0209119 Z M18.2566537,55.8255693 L17.6055447,56.4557034 L17.4225097,57.3450784 C17.2224514,58.3160664 16.7331323,59.2162775 16.009572,59.9448957 C15.7712451,60.1849337 14.2093191,61.5329872 6.94457198,64.4050761 C6.25083658,64.6772106 5.56990272,64.9408409 4.91457198,65.1873257 C5.16134241,64.5272898 5.42105058,63.8414669 5.69342412,63.1468655 C8.54490272,55.8277639 9.88116732,54.2546235 10.123716,54.0145855 C10.8472763,53.2837726 11.74107,52.7929978 12.702821,52.5936977 L13.5624319,52.4137378 L14.1794942,51.7857983 L17.5799416,48.3181408 L21.4144163,52.778184 L18.2566537,55.8255693 L18.2566537,55.8255693 Z" id="Shape" fill="#F6BB42"></path>
                                <g id="Group" transform="translate(0.272374, 20.574686)" fill="#DA4453">
                                    <path d="M27.0876848,37.4992852 C27.9005837,37.1156359 28.7134825,36.7082571 29.5220233,36.2818124 L46.0688521,24.3785337 C46.7455642,23.7419529 47.4136965,23.0904212 48.0733852,22.4303853 C48.4521206,22.0446785 48.8309922,21.6588346 49.201284,21.2687385 C49.1374125,28.8620321 45.681537,37.1692672 39.1191051,43.7811482 C36.9316732,45.9822281 34.56107,47.8360073 32.088463,49.3341188 C32.0714397,49.3448176 31.9733852,49.4027011 31.9733852,49.4027011 C31.4244163,49.7028171 30.7221012,49.6191468 30.258249,49.1519642 C30.1050389,48.9954595 29.9943191,48.8133049 29.9262257,48.6204515 C29.9262257,48.6204515 29.8751556,48.468336 29.8623541,48.4018112 L26.8746887,37.5977693 C26.9472763,37.5656728 27.0153696,37.5313817 27.0876848,37.4992852 L27.0876848,37.4992852 Z" id="Shape"></path>
                                    <path d="M28.1261089,0.0357999533 C27.7387938,0.410807893 27.3558366,0.792399733 26.9727432,1.17591188 C26.3172763,1.83814243 25.6703891,2.51107182 25.0405253,3.19264258 C22.1423346,3.60413629 13.2178794,19.8604699 13.2178794,19.8604699 C12.7965175,20.6749531 12.3923152,21.491631 12.0092218,22.3124238 C11.9751751,22.3832007 11.9453502,22.4538404 11.9113035,22.5246174 L1.18210117,19.5153638 C1.11822957,19.5024703 0.965019455,19.4510336 0.965019455,19.4510336 C0.773540856,19.3824513 0.594727626,19.2710737 0.43729572,19.1145689 C-0.0265564202,18.6473864 -0.107451362,17.9422233 0.190525292,17.3871183 C0.190525292,17.3871183 0.245817121,17.2906916 0.258618677,17.273546 C1.7438716,14.7830489 3.582393,12.3955624 5.76996109,10.192425 C12.336751,3.57848652 20.5846304,0.0979355044 28.1261089,0.0357999533 L28.1261089,0.0357999533 Z" id="Shape"></path>
                                </g>
                                <path d="M26.9642996,20.7176113 C18.7375292,29.0053691 12.8049611,38.4719192 9.49807393,47.6428796 C9.32361868,48.1572468 9.43420233,48.7444483 9.84276265,49.1538845 L21.1335992,60.5300398 C21.5421595,60.9372814 22.1251751,61.0508537 22.6358755,60.8751459 C31.7435019,57.5445157 41.1405253,51.5714101 49.3672957,43.2836523 C62.151965,30.4114431 69.3272374,14.8794756 69.8635409,1.63431588 C69.8805642,1.23996773 69.7401556,0.804881709 69.442179,0.502708156 C69.1399805,0.200534604 68.7101751,0.0591179305 68.3144163,0.076263502 C55.1639494,0.616280422 39.7447471,7.84540203 26.9642996,20.7176113 L26.9642996,20.7176113 Z" id="Shape" fill="#E6E9ED"></path>
                                <path d="M43.3877432,32.5802893 C41.8386187,32.5802893 40.3831907,31.9715529 39.2893385,30.8699842 C38.1956226,29.7662209 37.5912257,28.300206 37.5912257,26.739959 C37.5912257,25.179712 38.1956226,23.713697 39.2893385,22.6099337 C40.3830545,21.508365 41.8428405,20.8996287 43.3877432,20.8996287 C44.9368677,20.8996287 46.3922957,21.508365 47.4903696,22.6099337 C49.7503891,24.8882373 49.7503891,28.5937382 47.4903696,30.8699842 C46.3924319,31.9715529 44.9368677,32.5802893 43.391965,32.5802893 L43.3877432,32.5802893 L43.3877432,32.5802893 Z" id="Shape" fill="#434A54"></path>
                                <path d="M31.0881712,44.9681705 C29.5390467,44.9681705 28.0836187,44.3616287 26.9897665,43.2578654 C25.8959144,42.1562967 25.2915175,40.6880871 25.2915175,39.1298976 C25.2915175,37.5696506 25.8959144,36.1015782 26.9897665,34.9978149 C28.0834825,33.8962462 29.5390467,33.2875098 31.0881712,33.2875098 C32.6374319,33.2875098 34.0928599,33.8962462 35.1909339,34.9978149 C37.4508171,37.2761184 37.4508171,40.9817565 35.1909339,43.2578654 C34.0928599,44.3616287 32.6374319,44.9681705 31.0881712,44.9681705 L31.0881712,44.9681705 L31.0881712,44.9681705 Z" id="Shape" fill="#434A54"></path>
                                <g id="Group" transform="translate(23.832685, 19.340205)" fill="#CCD1D9">
                                    <path d="M24.6833074,2.23893731 C23.3129961,0.860844854 21.4913619,0.099992973 19.5550584,0.099992973 C17.6228405,0.099992973 15.8014786,0.860844854 14.4310311,2.23893731 C13.0649416,3.61702976 12.3073346,5.45160591 12.3073346,7.39975433 C12.3073346,9.35009738 13.0648054,11.1826161 14.4310311,12.562766 C15.8013424,13.9407213 17.6229767,14.6995157 19.5550584,14.6995157 C21.4914981,14.6995157 23.3129961,13.9408584 24.6833074,12.562766 C27.5093191,9.71660112 27.5093191,5.08523934 24.6833074,2.23893731 L24.6833074,2.23893731 Z M22.6320623,10.4967932 C21.7808949,11.3518771 20.6701556,11.7805164 19.5550584,11.7805164 C18.4443191,11.7805164 17.3292218,11.3518771 16.4824125,10.4967932 C14.7842996,8.78648815 14.7842996,6.01315767 16.4824125,4.30285262 C17.329358,3.44776868 18.4443191,3.02118686 19.5550584,3.02118686 C20.6701556,3.02118686 21.7808949,3.44763152 22.6320623,4.30285262 C24.3300389,6.01315767 24.3300389,8.78648815 22.6320623,10.4967932 L22.6320623,10.4967932 Z" id="Shape"></path>
                                    <path d="M7.25548638,12.4900688 C5.31904669,12.4900688 3.50190661,13.248726 2.13132296,14.6268185 C0.761011673,16.0047738 0.00762645914,17.8394871 0.00762645914,19.7898301 C0.00762645914,21.7381157 0.760875486,23.5704972 2.13132296,24.9507843 C3.50177043,26.3288768 5.31904669,27.0897286 7.25548638,27.0897286 C9.19206226,27.0897286 11.0135603,26.3288768 12.3840078,24.9507843 C15.2098833,22.1046194 15.2098833,17.4729833 12.3840078,14.6268185 C11.0135603,13.248726 9.19206226,12.4900688 7.25548638,12.4900688 L7.25548638,12.4900688 Z M10.3326265,22.8846744 C9.48145914,23.7419529 8.37058366,24.1683976 7.25548638,24.1683976 C6.14474708,24.1683976 5.02964981,23.7419529 4.18284047,22.8846744 C2.48459144,21.1742321 2.48459144,18.4010388 4.18284047,16.6907338 C5.02978599,15.8355127 6.14474708,15.409068 7.25548638,15.409068 C8.37058366,15.409068 9.48145914,15.8355127 10.3326265,16.6907338 C12.0307393,18.4009017 12.0307393,21.1742321 10.3326265,22.8846744 L10.3326265,22.8846744 Z" id="Shape"></path>
                                </g>
                                <path d="M65.3992023,19.9996919 L50.0822763,4.57484997 C56.3214008,1.84225737 62.5392802,0.31410687 68.3144163,0.076263502 C68.7101751,0.0591179305 69.1399805,0.200534604 69.442179,0.502708156 C69.7401556,0.804881709 69.8805642,1.23996773 69.8635409,1.63431588 C69.6294358,7.45530598 68.1101362,13.7157714 65.3992023,19.9996919 L65.3992023,19.9996919 Z" id="Shape" fill="#DA4453"></path>
                            </g>
                        </g>
                    </g>
                </g>
            </g>
        </g>
    </g>
</svg>