<?xml version="1.0" encoding="UTF-8"?>
<svg width="65px" height="65px" viewBox="0 0 65 65" version="1.1" xmlns="http://www.w3.org/2000/svg" xmlns:xlink="http://www.w3.org/1999/xlink">
    <!-- Generator: Sketch 39.1 (31720) - http://www.bohemiancoding.com/sketch -->
    <title>monitor</title>
    <desc>Created with Sketch.</desc>
    <defs></defs>
    <g id="Page-1" stroke="none" stroke-width="1" fill="none" fill-rule="evenodd">
        <g id="edit" transform="translate(-671.000000, -145.000000)" fill="#FFFFFF">
            <g id="Welcome-chinese" transform="translate(370.000000, 89.000000)">
                <g id="operate" transform="translate(116.000000, 51.000000)">
                    <path d="M244.982643,5.42222222 L189.665365,5.42222222 C187.298346,5.42222222 185.377826,7.42498299 185.377826,9.89634798 L185.377826,50.4768776 C185.377826,52.9452578 187.298346,54.9480186 189.665365,54.9480186 L204.794828,54.9480186 C206.211606,54.9480186 207.359338,56.1448995 207.359338,57.6223459 L207.359338,61.1652327 C207.359338,62.6426792 206.211606,63.83956 204.794828,63.83956 L204.542957,63.83956 C203.03459,63.83956 201.812441,65.1140442 201.812441,66.6840176 L201.812441,66.7437124 C201.812441,68.3136858 203.03459,69.5851852 204.542957,69.5851852 L230.033497,69.5851852 C231.539002,69.5851852 232.761151,68.3136858 232.761151,66.7437124 L232.761151,66.6840176 C232.761151,65.1140442 231.539002,63.83956 230.033497,63.83956 L229.838869,63.83956 C228.422092,63.83956 227.27436,62.6426792 227.27436,61.1652327 L227.27436,57.6223459 C227.27436,56.1448995 228.422092,54.9480186 229.838869,54.9480186 L244.982643,54.9480186 C247.349663,54.9480186 249.270183,52.9452578 249.270183,50.4768776 L249.270183,9.89634798 C249.270183,7.42498299 247.349663,5.42222222 244.982643,5.42222222 L244.982643,5.42222222 Z M243.671767,43.6298832 C243.671767,44.5253053 242.97912,45.2476125 242.123329,45.2476125 L192.450263,45.2476125 C191.597334,45.2476125 190.901826,44.5253053 190.901826,43.6298832 L190.901826,12.7258818 C190.901826,11.8334445 191.597334,11.1111373 192.450263,11.1111373 L242.123329,11.1111373 C242.97912,11.1111373 243.671767,11.8334445 243.671767,12.7258818 L243.671767,43.6298832 L243.671767,43.6298832 Z" id="monitor"></path>
                </g>
            </g>
        </g>
    </g>
</svg>