<?xml version="1.0" encoding="UTF-8"?>
<svg width="65px" height="65px" viewBox="0 0 65 65" version="1.1" xmlns="http://www.w3.org/2000/svg" xmlns:xlink="http://www.w3.org/1999/xlink">
    <!-- Generator: Sketch 39.1 (31720) - http://www.bohemiancoding.com/sketch -->
    <title>monitor</title>
    <desc>Created with Sketch.</desc>
    <defs></defs>
    <g id="Page-1" stroke="none" stroke-width="1" fill="none" fill-rule="evenodd">
        <path d="M59.982643,0.42222222 L4.665365,0.42222222 C2.298346,0.42222222 0.377826,2.42498299 0.377826,4.89634798 L0.377826,45.4768776 C0.377826,47.9452578 2.298346,49.9480186 4.665365,49.9480186 L19.794828,49.9480186 C21.211606,49.9480186 22.359338,51.1448995 22.359338,52.6223459 L22.359338,56.1652327 C22.359338,57.6426792 21.211606,58.83956 19.794828,58.83956 L19.542957,58.83956 C18.03459,58.83956 16.812441,60.1140442 16.812441,61.6840176 L16.812441,61.7437124 C16.812441,63.3136858 18.03459,64.5851852 19.542957,64.5851852 L45.033497,64.5851852 C46.539002,64.5851852 47.761151,63.3136858 47.761151,61.7437124 L47.761151,61.6840176 C47.761151,60.1140442 46.539002,58.83956 45.033497,58.83956 L44.838869,58.83956 C43.422092,58.83956 42.27436,57.6426792 42.27436,56.1652327 L42.27436,52.6223459 C42.27436,51.1448995 43.422092,49.9480186 44.838869,49.9480186 L59.982643,49.9480186 C62.349663,49.9480186 64.270183,47.9452578 64.270183,45.4768776 L64.270183,4.89634798 C64.270183,2.42498299 62.349663,0.42222222 59.982643,0.42222222 L59.982643,0.42222222 L59.982643,0.42222222 Z M58.671767,38.6298832 C58.671767,39.5253053 57.97912,40.2476125 57.123329,40.2476125 L7.450263,40.2476125 C6.597334,40.2476125 5.901826,39.5253053 5.901826,38.6298832 L5.901826,7.7258818 C5.901826,6.8334445 6.597334,6.1111373 7.450263,6.1111373 L57.123329,6.1111373 C57.97912,6.1111373 58.671767,6.8334445 58.671767,7.7258818 L58.671767,38.6298832 L58.671767,38.6298832 L58.671767,38.6298832 Z" id="monitor" fill="#000000"></path>
    </g>
</svg>