<?xml version="1.0" encoding="UTF-8"?>
<svg width="69px" height="68px" viewBox="0 0 69 68" version="1.1" xmlns="http://www.w3.org/2000/svg" xmlns:xlink="http://www.w3.org/1999/xlink">
    <!-- Generator: Sketch 39.1 (31720) - http://www.bohemiancoding.com/sketch -->
    <title>Group</title>
    <desc>Created with Sketch.</desc>
    <defs></defs>
    <g id="Page-1" stroke="none" stroke-width="1" fill="none" fill-rule="evenodd">
        <g id="edit" transform="translate(-29.000000, -390.000000)">
            <g id="bar">
                <g id="preview" transform="translate(0.000000, 363.000000)">
                    <g id="Group" transform="translate(29.000000, 27.000000)">
                        <path d="M66.1463003,34.1913244 C66.1463003,51.3542663 52.0754291,65.2689625 34.7172115,65.2689625 C17.3568509,65.2689625 3.28597966,51.3542663 3.28597966,34.1913244 C3.28597966,17.0262636 17.3568509,3.1136862 34.7172115,3.1136862 C52.0754291,3.1136862 66.1463003,17.0262636 66.1463003,34.1913244" id="Fill-558" fill="#FACA59"></path>
                        <path d="M67.0443442,1.51300885 C63.9027211,-1.59115287 56.4472595,0.231085411 47.3031219,5.60668833 C48.3339,6.07072343 49.3346763,6.58773056 50.3033077,7.15559086 C50.7533355,6.9076817 51.2012204,6.66612919 51.6426763,6.43517108 C59.0252763,2.57668747 63.6841362,2.18681324 65.0235048,3.51111431 C66.3650164,4.83753427 65.9707063,9.44398312 62.0683218,16.7435306 C60.0624834,20.4939513 57.3751741,24.5431342 54.0813987,28.7766599 C50.646186,33.1945283 46.7052278,37.6081589 42.3699593,41.8925377 C38.0346909,46.1790355 33.5708431,50.0756589 29.1048523,53.4722263 C24.8231586,56.7289475 20.727905,59.3860252 16.9326701,61.3692985 C9.5500701,65.2277821 4.8933532,65.6176563 3.55184157,64.2912364 C2.21032993,62.9669353 2.60464006,58.3604865 6.50916753,51.0609389 C6.74061043,50.6244493 6.98705426,50.181603 7.23778407,49.7366379 C6.6634628,48.7789033 6.14057328,47.7893856 5.67125851,46.7723223 C0.232350321,55.8114718 -1.61062093,63.1830612 1.53314515,66.2893418 C7.11134767,71.8069098 26.2975356,61.7782427 44.3907987,43.8906432 C62.4797759,26.0030437 72.6246897,7.03057684 67.0443442,1.51300885" id="Fill-559" fill="#DFA229"></path>
                    </g>
                </g>
            </g>
        </g>
    </g>
</svg>