<?xml version="1.0" encoding="UTF-8"?>
<svg width="37px" height="32px" viewBox="0 0 37 32" version="1.1" xmlns="http://www.w3.org/2000/svg" xmlns:xlink="http://www.w3.org/1999/xlink">
    <!-- Generator: Sketch 39.1 (31720) - http://www.bohemiancoding.com/sketch -->
    <title>outbox</title>
    <desc>Created with Sketch.</desc>
    <defs></defs>
    <g id="Page-1" stroke="none" stroke-width="1" fill="none" fill-rule="evenodd">
        <g id="publish" fill="#FFFFFF">
            <path d="M35.678955,21.448284 L30.3250627,15.138658 C30.0411667,14.8042256 29.6234977,14.6109979 29.1850196,14.6109979 L27.3582751,14.6109979 C27.1115383,14.6109979 26.8796651,14.7269345 26.7310284,14.9231349 L26.1439137,15.6975319 C25.922445,15.9903461 26.1305364,16.4109878 26.4976689,16.4109878 L27.5648801,16.4109878 C27.9364717,16.4109878 28.2827951,16.5908381 28.4968319,16.8940569 L31.9674977,21.8362256 C32.2603119,22.255381 31.9615523,22.8291185 31.4517285,22.8291185 L26.8529105,22.8291185 C25.9194723,22.8291185 25.1079162,23.4667697 24.8864476,24.3734533 L24.2487963,26.9775675 C24.0808369,27.6642688 23.4654812,28.1458516 22.7594571,28.1458516 L13.9185489,28.1458516 C13.2080657,28.1458516 12.5912236,27.6598097 12.4262369,26.9686493 L11.8093948,24.3853442 C11.5923853,23.4727152 10.7763701,22.8291185 9.83995915,22.8291185 L5.23073653,22.8291185 C4.72091281,22.8291185 4.42215313,22.255381 4.71496734,21.837712 L8.17076953,16.8955433 C8.38331995,16.5923245 8.73112972,16.4109878 9.10272135,16.4109878 L10.2056053,16.4109878 C10.5861151,16.4109878 10.7897474,15.9650778 10.5430105,15.6767227 L9.86076828,14.8844894 C9.71213163,14.7105845 9.49363575,14.6109979 9.2647353,14.6109979 L7.55987289,14.6109979 C7.12139476,14.6109979 6.7066985,14.8027392 6.42131612,15.1356853 L1.02431924,21.4661204 C0.196413079,22.4367177 -0.15585579,23.7268839 0.0641264574,24.98435 L0.918787214,29.8492276 C1.13728309,31.0933164 2.2163852,32 3.47831039,32 L33.1655092,32 C34.4185162,32 35.4931592,31.1066937 35.7205732,29.8744959 L36.6242841,24.9977273 C36.8576436,23.7328293 36.5113202,22.4292859 35.678955,21.448284 L35.678955,21.448284 Z M10.3230283,11.8879744 L13.2704931,11.8879744 C13.99584,11.8879744 14.5829548,12.4750892 14.5829548,13.2004361 L14.5829548,20.3572909 C14.5829548,21.1346606 15.2131742,21.76488 15.9890575,21.76488 L20.6651666,21.76488 C21.4425363,21.76488 22.0712694,21.1346606 22.0712694,20.3572909 L22.0712694,13.2004361 C22.0712694,12.4750892 22.6598705,11.8879744 23.3852174,11.8879744 L26.3728141,11.8879744 C27.1932884,11.8879744 27.6406848,10.9307544 27.1159974,10.300535 L19.352705,0.989935008 C18.8295039,0.362688331 17.8648521,0.362688331 17.341651,0.989935008 L9.57984501,10.300535 C9.05515762,10.9307544 9.50255395,11.8879744 10.3230283,11.8879744 L10.3230283,11.8879744 Z" id="outbox"></path>
        </g>
    </g>
</svg>