<?xml version="1.0" encoding="UTF-8"?>
<svg width="112px" height="95px" viewBox="0 0 112 95" version="1.1" xmlns="http://www.w3.org/2000/svg" xmlns:xlink="http://www.w3.org/1999/xlink">
    <!-- Generator: Sketch 39.1 (31720) - http://www.bohemiancoding.com/sketch -->
    <title>Group 2</title>
    <desc>Created with Sketch.</desc>
    <defs>
        <filter x="-50%" y="-50%" width="200%" height="200%" filterUnits="objectBoundingBox" id="filter-1">
            <feOffset dx="0" dy="3" in="SourceAlpha" result="shadowOffsetOuter1"></feOffset>
            <feGaussianBlur stdDeviation="5.5" in="shadowOffsetOuter1" result="shadowBlurOuter1"></feGaussianBlur>
            <feColorMatrix values="0 0 0 0 0.422645621   0 0 0 0 0.422645621   0 0 0 0 0.422645621  0 0 0 0.5 0" type="matrix" in="shadowBlurOuter1" result="shadowMatrixOuter1"></feColorMatrix>
            <feMerge>
                <feMergeNode in="shadowMatrixOuter1"></feMergeNode>
                <feMergeNode in="SourceGraphic"></feMergeNode>
            </feMerge>
        </filter>
    </defs>
    <g id="Page-1" stroke="none" stroke-width="1" fill="none" fill-rule="evenodd">
        <g id="history" transform="translate(-347.000000, -32.000000)">
            <g id="Group-2" filter="url(#filter-1)" transform="translate(358.000000, 40.000000)">
                <path d="M27.2925,55.5448852 L12.555,70.377235 C11.8209375,71.1131913 11.8209375,72.3077049 12.555,73.0436612 C13.2890625,73.7824481 14.473125,73.7824481 15.204375,73.0436612 L29.941875,58.2141421 L27.2925,55.5448852" id="Fill-320" fill="#3E4348"></path>
                <path d="M77.4084375,70.377235 L62.67375,55.5448852 L60.024375,58.2141421 L74.761875,73.0436612 C75.493125,73.7824481 76.68,73.7824481 77.4084375,73.0436612 C78.1453125,72.3077049 78.1453125,71.1131913 77.4084375,70.377235" id="Fill-321" fill="#3E4348"></path>
                <path d="M46.8759375,71.7076175 L46.8759375,55.6128197 L43.126875,55.6128197 L43.126875,71.7104481 C43.126875,72.1916503 43.306875,72.6756831 43.6753125,73.0436612 C44.4065625,73.7824481 45.5934375,73.7824481 46.3303125,73.0436612 C46.693125,72.6756831 46.87875,72.1916503 46.8759375,71.7076175" id="Fill-322" fill="#3E4348"></path>
                <polyline id="Fill-323" fill="#C8CCCF" points="73.125 47.1776284 16.875 47.1776284 24.3759375 58.5000328 65.626875 58.5000328 73.125 47.1776284"></polyline>
                <path d="M18.478125,41.5164262 C17.415,38.4990055 72.5878125,38.4990055 71.5275,41.5164262 L75.47625,41.5164262 C76.381875,38.5358033 76.876875,35.3683607 76.876875,32.0820328 C76.876875,14.3653005 62.60625,0 45,0 C27.3965625,0 13.1259375,14.3653005 13.1259375,32.0820328 C13.1259375,35.3683607 13.618125,38.5358033 14.529375,41.5164262 L18.478125,41.5164262" id="Fill-324" fill="#EDB648"></path>
                <path d="M90,41.5164262 C90,46.7275628 85.80375,50.9508197 80.623125,50.9508197 L9.376875,50.9508197 C4.19625,50.9508197 0,46.7275628 0,41.5164262 C0,36.3081202 4.19625,32.0820328 9.376875,32.0820328 L80.623125,32.0820328 C85.80375,32.0820328 90,36.3081202 90,41.5164262" id="Fill-325" fill="#E6E9E9"></path>
                <path d="M24.3759375,41.5164262 C24.3759375,42.560918 23.5378125,43.4044372 22.5,43.4044372 C21.4678125,43.4044372 20.626875,42.560918 20.626875,41.5164262 C20.626875,40.474765 21.4678125,39.6284153 22.5,39.6284153 C23.5378125,39.6284153 24.3759375,40.474765 24.3759375,41.5164262" id="Fill-326" fill="#0A0A08"></path>
                <path d="M39.375,41.5164262 C39.375,42.560918 38.536875,43.4044372 37.501875,43.4044372 C36.466875,43.4044372 35.6259375,42.560918 35.6259375,41.5164262 C35.6259375,40.474765 36.466875,39.6284153 37.501875,39.6284153 C38.536875,39.6284153 39.375,40.474765 39.375,41.5164262" id="Fill-327" fill="#0A0A08"></path>
                <path d="M54.376875,41.5164262 C54.376875,42.560918 53.5359375,43.4044372 52.5009375,43.4044372 C51.4659375,43.4044372 50.625,42.560918 50.625,41.5164262 C50.625,40.474765 51.4659375,39.6284153 52.5009375,39.6284153 C53.5359375,39.6284153 54.376875,40.474765 54.376875,41.5164262" id="Fill-328" fill="#0A0A08"></path>
                <path d="M69.3759375,41.5164262 C69.3759375,42.560918 68.5378125,43.4044372 67.5,43.4044372 C66.4678125,43.4044372 65.626875,42.560918 65.626875,41.5164262 C65.626875,40.474765 66.4678125,39.6284153 67.5,39.6284153 C68.5378125,39.6284153 69.3759375,40.474765 69.3759375,41.5164262" id="Fill-329" fill="#0A0A08"></path>
                <path d="M45,7.46429508 C43.9678125,7.46429508 43.126875,8.30781421 43.126875,9.35230601 C43.126875,10.3939672 43.9678125,11.2374863 45,11.2374863 C50.5321875,11.2374863 55.7325,13.4085574 59.6446875,17.3430929 C63.556875,21.280459 65.71125,26.5142404 65.71125,32.0820328 L69.4603125,32.0820328 C69.4603125,18.4866557 58.51125,7.46429508 45,7.46429508" id="Fill-330" fill="#FACA59"></path>
                <polygon id="Fill-331" fill="#A4ABB1" points="31.876875 58.5000328 35.6259375 58.5000328 35.6259375 50.9508197 31.876875 50.9508197"></polygon>
                <polygon id="Fill-332" fill="#A4ABB1" points="43.126875 58.5000328 46.8759375 58.5000328 46.8759375 50.9508197 43.126875 50.9508197"></polygon>
                <polygon id="Fill-333" fill="#A4ABB1" points="54.376875 58.5000328 58.1259375 58.5000328 58.1259375 50.9508197 54.376875 50.9508197"></polygon>
            </g>
        </g>
    </g>
</svg>