<?xml version="1.0" encoding="UTF-8"?>
<svg width="78px" height="58px" viewBox="0 0 78 58" version="1.1" xmlns="http://www.w3.org/2000/svg" xmlns:xlink="http://www.w3.org/1999/xlink">
    <!-- Generator: Sketch 39.1 (31720) - http://www.bohemiancoding.com/sketch -->
    <title>cloudupload</title>
    <desc>Created with Sketch.</desc>
    <defs></defs>
    <g id="Page-1" stroke="none" stroke-width="1" fill="none" fill-rule="evenodd">
        <g id="edit" transform="translate(-858.000000, -145.000000)" fill="#FFFFFF">
            <g id="Welcome-chinese" transform="translate(370.000000, 89.000000)">
                <g id="operate" transform="translate(116.000000, 51.000000)">
                    <path d="M441.340916,31.157519 C440.175902,30.5476774 439.541276,29.19542 439.72216,27.810019 C440.16977,24.3896032 439.804937,20.6940959 438.075811,16.8096702 C435.420806,10.8405144 430.162916,6.44899215 424.08645,5.5938882 C416.713139,4.55980901 410.060298,8.28845994 406.390505,14.3272173 C405.470757,15.8385638 403.527024,16.1335415 402.153534,15.1027767 C399.133696,12.8324425 395.184912,11.9209945 390.990863,13.283195 C388.737481,14.0189821 386.790682,15.4971851 385.257769,17.4294548 C382.112232,21.3867964 381.793387,24.9696156 382.133693,27.949222 C382.305379,29.4605685 381.508265,30.8857417 380.285,31.6347863 C375.425667,34.6077639 372.218813,40.3482292 372.583647,46.9040261 C373.074179,55.7301572 380.343251,62.3555556 388.522874,62.3555556 L401.773371,62.3555556 C404.311875,62.3555556 406.37211,60.1283081 406.37211,57.384021 L406.37211,52.0346498 C406.37211,50.8083379 405.452362,49.814031 404.314941,49.814031 L399.700873,49.814031 C398.416293,49.814031 397.714218,48.1933107 398.538926,47.126088 L410.691858,31.3663234 C411.510433,30.302415 413.021885,30.302415 413.840461,31.3663234 L425.996459,47.126088 C426.8181,48.1933107 426.116026,49.814031 424.831445,49.814031 L420.152995,49.814031 C419.01864,49.814031 418.098892,50.8083379 418.098892,52.0346498 L418.098892,57.384021 C418.098892,60.1283081 420.156061,62.3555556 422.697631,62.3555556 L434.157686,62.3555556 C441.71188,62.3555556 448.551737,56.66812 449.744343,48.6076053 C450.878699,40.9547564 447.116931,34.1735833 441.340916,31.157519" id="cloudupload"></path>
                </g>
            </g>
        </g>
    </g>
</svg>