<?xml version="1.0" encoding="UTF-8"?>
<svg width="53px" height="61px" viewBox="0 0 53 61" version="1.1" xmlns="http://www.w3.org/2000/svg" xmlns:xlink="http://www.w3.org/1999/xlink">
    <!-- Generator: Sketch 39.1 (31720) - http://www.bohemiancoding.com/sketch -->
    <title>Shape</title>
    <desc>Created with Sketch.</desc>
    <defs>
        <linearGradient x1="82.712314%" y1="-14.4584965%" x2="26.296572%" y2="100%" id="linearGradient-1">
            <stop stop-color="#55CBF2" offset="0%"></stop>
            <stop stop-color="#2F81ED" offset="100%"></stop>
        </linearGradient>
    </defs>
    <g id="Page-1" stroke="none" stroke-width="1" fill="none" fill-rule="evenodd">
        <g id="Website" transform="translate(-826.000000, -751.000000)" fill="url(#linearGradient-1)">
            <g id="Group" transform="translate(605.000000, 751.000000)">
                <path d="M239.618793,51.7486842 C241.827762,51.5234803 242.118982,49.222484 241.078202,48.218858 C240.221089,47.3898466 235.495385,43.9350883 234.26101,42.5757054 C233.688498,41.9457873 232.912464,41.635724 232.583187,40.9274741 C231.828663,39.2971937 231.297517,36.9700869 232.257219,35.2990087 C232.430958,34.997105 232.54182,35.1325537 232.409448,35.7624718 C231.656578,39.3282001 234.014466,42.2395315 234.532374,40.7463318 C234.891435,39.7149633 234.558849,37.8676386 234.750789,36.4021814 C235.089994,33.8074409 237.487594,28.8268448 238.539956,28.542892 C236.916737,25.5793394 240.444468,23.2603921 240.401447,20.659124 C240.373317,18.9684629 241.910495,22.7398121 243.454291,23.5394491 C245.180099,24.4304732 247.074683,21.8569475 249.766812,20.5497858 C250.527955,20.1793418 251.504203,19.7550446 251.438017,19.4400855 C251.121977,17.9191433 247.903667,21.3151527 245.029526,21.4293865 C243.717382,21.4816077 243.230912,21.1764401 242.724587,20.695026 C241.192373,19.2360965 242.880125,20.453503 245.156934,20.0471569 C246.169585,19.8676465 246.510445,19.7011915 247.584318,19.2736305 C248.658191,18.8460694 249.885947,18.2128875 251.102121,17.888137 C251.947651,17.6613012 251.876501,17.0346469 251.547224,16.8469769 C251.358593,16.7392707 251.077301,16.7490622 250.855577,17.1276659 C250.33436,18.017058 247.882156,18.5294785 247.11605,18.7595781 C246.133183,19.0565861 245.046072,19.3323793 243.601556,19.2752624 C241.407479,19.1871391 241.918768,18.1965684 240.350152,17.31044 C239.890157,17.050966 240.014257,16.3688267 240.624826,15.766651 C240.945829,15.4500601 241.824453,15.2721816 242.259628,14.5541402 C242.32085,14.4529617 242.881779,13.8752647 243.321918,13.5766248 C243.474147,13.4721824 243.487384,10.8350122 242.112363,10.7811591 C240.944175,10.7338337 240.613243,11.6264897 240.661228,12.5142499 C240.710868,13.4020102 241.187409,14.1347388 241.506758,14.1298431 C242.118982,14.1249473 241.544815,14.7907675 241.20892,14.8984737 C240.699285,15.0616649 240.001019,12.9205961 240.080443,11.8941233 C240.164831,10.8235888 240.730724,8.92730681 242.107399,8.96484079 C243.345084,8.99747904 244.243563,10.5265808 244.198887,13.1653829 C244.190614,13.6125269 246.207642,12.9516024 246.879433,13.6516928 C247.360939,14.1526898 245.231394,8.97789609 249.973644,8.62050731 C251.224566,8.85713458 252.424193,9.26674456 252.9239,12.0948485 C252.738578,12.3902246 253.234975,14.3632065 252.46225,14.5982019 C251.52075,14.8837865 250.939965,14.5557722 251.484347,13.6729076 C251.856645,12.7867793 251.49262,10.5314765 249.588109,10.6669253 C247.683597,10.802374 247.935105,14.131475 248.457977,14.1967515 C248.980849,14.2636599 250.296303,15.1824265 251.214638,15.358673 C254.22777,15.9363699 252.013838,17.6368225 252.404337,19.6962957 C252.846131,22.0234026 254.403164,21.4081717 255.80135,27.5686404 C256.09257,27.9439802 257.250831,28.2981052 258.379308,33.0306507 C259.395268,37.2883098 257.95737,40.3840473 260.397991,40.129469 C260.948992,40.072352 261.751501,39.9205842 262.100634,38.7146011 C263.014005,35.5617466 261.643948,31.8050846 260.258999,29.269093 C259.453181,27.7905805 258.693693,26.7853225 258.293265,26.4393571 C259.878428,27.3613876 261.907039,30.3118849 262.375307,32.5019111 C262.989185,35.3773405 263.429324,36.594747 262.499407,39.6366315 C263.035516,39.9010013 264.370825,40.4591152 264.370825,41.0874015 C262.979257,39.961382 258.720167,39.7606568 258.61096,42.4549439 C257.884565,42.4679992 257.335218,42.5267481 256.86695,43.0734387 C255.154379,45.0741631 256.744505,49.0935629 256.572421,51.2476871 C256.418538,53.1439691 255.884083,55.0239321 255.582935,56.9283736 C254.563666,56.8908397 254.6646,56.1548472 254.990568,55.1251106 C255.280133,54.2145036 255.745092,53.0754288 255.774876,51.9820476 C255.803005,50.9931088 255.692143,50.376246 255.440635,50.2228462 C255.185817,50.0678146 254.790354,50.3795098 254.242662,51.249319 C253.072819,53.1031713 250.539537,53.9191275 248.173376,54.2112398 C245.807215,54.503352 243.608174,54.2716205 242.443295,52.9873056 C242.046177,52.5483212 241.385968,53.1064352 241.306545,53.2239328 C241.202301,53.3805964 241.69208,53.6841321 242.062723,54.3515842 C242.602142,55.3274677 243.115086,56.8076121 241.836035,57.4832238 C241.850927,54.0480485 240.74727,53.8473233 239.618793,51.7486842 L239.618793,51.7486842 L239.618793,51.7486842 Z M238.773263,51.6572971 C239.622103,52.9709864 242.608761,58.5048009 237.371768,59.2228423 C235.621139,59.4627334 232.801602,58.2192162 230.068106,57.5615556 C227.614248,56.9691715 225.120678,56.6199422 223.725802,56.233179 C222.88689,56.0014475 222.536102,55.7044395 222.461643,55.3584741 C222.268048,54.4397075 223.482567,53.1521287 223.543789,52.0636432 C223.605012,50.9767897 223.140053,50.412148 222.761136,49.5243878 C222.37891,48.6349956 222.281285,47.9691754 222.585742,47.5873079 C222.822358,47.2919318 223.303864,47.1679065 224.088172,47.2429745 C225.080967,47.3392573 226.280594,47.1385321 226.924256,46.7517689 C228.011366,46.099004 228.521001,44.7624678 228.032877,43.1534024 C228.032877,44.7281977 227.50835,45.3254776 226.192897,46.0451509 C224.953558,46.7256583 223.040773,46.1757038 222.160495,46.9263835 C221.101514,47.8320948 222.537757,50.1657293 222.420276,51.8792372 C222.330925,53.1961903 220.934393,54.6795986 221.558199,55.9998156 C222.18366,57.3281921 225.102477,57.4734323 228.145394,58.1000866 C232.472325,58.9911107 234.995678,60.5430593 236.994505,60.6164953 C239.910013,60.7225696 240.356771,57.7753361 244.93521,57.7345383 C246.270519,57.665998 247.576044,57.6252002 248.88157,57.6088811 C250.360834,57.59093 251.836789,57.6023534 253.352456,57.6382555 C256.400337,57.7100596 255.352938,59.2766954 257.3286,60.2770576 C258.996495,61.1207562 261.99639,60.7878461 262.712857,60.1138664 C263.684142,59.2016274 266.290228,57.0083373 268.287401,56.0177666 C270.777661,54.782409 276.623569,52.6560274 272.37937,50.0629188 C271.389885,49.4574794 269.051853,48.8194017 268.854949,44.3985514 C267.969706,45.1737097 268.072295,49.2926562 270.5427,50.1102443 C273.30267,51.0224832 275.026824,52.551585 269.895729,54.2797801 C266.498715,55.4237506 265.92124,55.7762436 263.23242,57.980957 C260.512162,60.2101492 256.473141,59.3240208 257.178026,54.6290093 C257.54536,52.1811409 257.757156,50.1592016 257.138314,48.03282 C256.837166,46.9949238 256.686592,45.6616515 256.893425,44.7265658 C257.293852,42.9086155 258.293265,42.3619249 259.272823,44.1064391 C259.886701,45.2014522 260.101807,46.4825034 262.302502,46.5869457 C265.759083,46.750137 266.444112,43.2970106 267.549423,43.1403471 C268.285746,43.0342728 269.022069,40.9813272 268.46114,37.6587538 C267.860499,34.1011851 265.734263,28.4857751 263.009041,25.6364563 C260.743814,23.2701836 259.315844,21.1943912 258.419019,18.2324704 C257.664495,15.7421724 257.242558,13.3204146 257.398095,11.0047311 C257.599964,8.00364448 255.910558,3.82758104 253.220083,1.86275869 C251.535641,0.633928772 248.894807,-0.0253637763 246.503826,0.000746819681 C245.163553,0.0154340299 243.902703,0.207999675 242.933074,0.725315857 C238.942038,2.85822516 238.386073,5.90663724 238.445641,9.38424224 C238.501899,12.6496986 238.614416,16.3769862 238.991678,19.9231315 C238.54492,21.55178 236.22178,24.6393579 234.734242,26.5176889 C232.735415,28.4629283 231.724419,32.2228541 230.430477,35.5078935 C229.740484,37.2589353 228.577259,38.0487809 228.479635,40.3008198 C228.45316,40.9307379 228.474671,42.5593863 229.086894,42.0942913 C231.424926,40.3122431 234.352016,44.8032656 238.773263,51.6572971 L238.773263,51.6572971 L238.773263,51.6572971 Z M250.91349,4.57336494 C250.787736,4.94380902 250.268173,5.25387234 250.59745,5.51334639 C250.928382,5.77282044 251.117013,5.14942996 251.780531,4.91606651 C251.950961,4.85568575 252.748506,4.9421771 252.894116,4.5684692 C252.958648,4.40527797 252.483761,4.22087189 252.200814,3.95323828 C251.917868,3.6888685 251.639885,3.45060931 251.37514,3.46856034 C250.688456,3.51099006 251.026007,4.24371866 250.91349,4.57336494 L250.91349,4.57336494 L250.91349,4.57336494 Z M244.008601,13.9372774 C242.914872,13.8573137 242.838758,14.6357359 243.201128,14.6226806 C243.570117,14.6112572 243.343429,14.0074496 244.008601,13.9372774 L244.008601,13.9372774 L244.008601,13.9372774 Z M242.132219,11.9479764 C242.261282,11.9202339 242.444949,12.1372782 242.387036,12.4424458 C242.307613,12.8634792 242.342361,13.1278489 242.640199,13.1294808 C242.688184,13.1294808 242.741133,13.1213213 242.760989,13.0103513 C242.90329,12.1699164 242.459841,11.5514217 242.277829,11.5057282 C241.859201,11.4012858 241.910495,11.9953018 242.132219,11.9479764 L242.132219,11.9479764 L242.132219,11.9479764 Z M250.094434,11.5922195 C250.372417,11.6738151 250.638817,12.1470697 250.698384,12.6578582 C250.703348,12.7051837 251.060755,12.5844222 251.064064,12.4734521 C251.085574,11.6509684 250.372417,11.2642051 250.18544,11.2805243 C249.756884,11.3180583 249.877674,11.5285749 250.094434,11.5922195 L250.094434,11.5922195 L250.094434,11.5922195 Z M246.012393,14.038456 C247.008497,13.5847844 247.355975,14.2881385 247.011806,14.4007405 C246.661019,14.5166063 246.659364,13.8736328 246.012393,14.038456 L246.012393,14.038456 L246.012393,14.038456 Z" id="Shape"></path>
            </g>
        </g>
    </g>
</svg>