<?xml version="1.0" encoding="UTF-8"?>
<svg width="60px" height="59px" viewBox="0 0 60 59" version="1.1" xmlns="http://www.w3.org/2000/svg" xmlns:xlink="http://www.w3.org/1999/xlink">
    <!-- Generator: Sketch 39.1 (31720) - http://www.bohemiancoding.com/sketch -->
    <title>Shape</title>
    <desc>Created with Sketch.</desc>
    <defs>
        <linearGradient x1="82.7435805%" y1="16.460888%" x2="25.0914133%" y2="86.5197252%" id="linearGradient-1">
            <stop stop-color="#55CBF2" offset="0%"></stop>
            <stop stop-color="#53C8F2" offset="44.0134907%"></stop>
            <stop stop-color="#2F81ED" offset="100%"></stop>
        </linearGradient>
    </defs>
    <g id="Page-1" stroke="none" stroke-width="1" fill="none" fill-rule="evenodd">
        <g id="Website" transform="translate(-713.000000, -752.000000)" fill="url(#linearGradient-1)">
            <g id="Group" transform="translate(605.000000, 751.000000)">
                <path d="M138.164074,1.17307692 C121.708498,1.17307692 108.368644,14.319762 108.368644,30.5393378 C108.368644,46.7572817 121.708498,59.9055987 138.164074,59.9055987 C154.619649,59.9055987 167.959503,46.7572817 167.959503,30.5393378 C167.959503,14.319762 154.619649,1.17307692 138.164074,1.17307692 L138.164074,1.17307692 Z M139.654921,31.4336257 C141.845688,34.4526634 144.018254,37.4945478 146.189166,40.5282727 C147.536058,42.4114994 150.291063,46.2970825 152.427227,49.3569179 L149.94524,49.3569179 C148.024182,46.6365202 145.308888,42.7933669 144.170483,41.1777737 C142.294101,38.5193887 140.429301,35.836525 138.561192,33.1732442 C138.192203,32.6477684 138.154146,32.6624556 137.800049,33.1699804 C136.069276,35.6472231 134.328576,38.122834 132.587876,40.5919173 C130.812427,43.1083259 129.030361,45.6296304 127.254912,48.1444071 C127.056353,48.4267279 126.637725,49.0174802 126.44413,49.3569179 L123.934013,49.3569179 C124.410555,48.6764105 125.067454,47.7103185 125.497665,47.1016152 C127.347573,44.4905556 129.194172,41.8582812 131.054008,39.2537492 C132.285073,37.5271861 133.537649,35.8153101 134.783607,34.0985384 C135.438852,33.1960909 136.122226,32.3099626 136.746032,31.3863003 C136.868476,31.205158 136.886678,30.8102352 136.767542,30.6405164 C136.163592,29.7772348 135.480218,28.9710701 134.863031,28.11758 C134.245843,27.2657218 133.678295,26.3795935 133.082618,25.5114162 C132.892333,25.2323592 132.678882,24.9679894 132.481978,24.6921962 C130.696601,22.1921067 128.914535,19.6887533 127.129158,17.1886637 C126.36967,16.1246569 124.367534,13.4222102 123.162943,11.7217577 L125.656513,11.7217577 C127.900229,14.895827 131.270768,19.527194 133.188517,22.2280087 C134.831592,24.5404284 136.474668,26.8512161 138.190548,29.2664463 C138.586012,28.7164918 138.926871,28.2448692 139.264421,27.7699827 C142.689564,22.9509459 147.241528,16.5962796 150.683217,11.7217577 L153.185061,11.7217577 C152.466939,12.7417028 151.355009,14.2577493 150.98602,14.7734336 C149.574596,16.7447836 148.163173,18.7161336 146.755059,20.6874836 C145.207954,22.8562949 143.665812,25.0283702 142.117052,27.1955496 C141.304615,28.3313605 140.488868,29.4688034 139.65823,30.591559 C139.434851,30.8934628 139.419959,31.1088752 139.654921,31.4336257 L139.654921,31.4336257 Z" id="Shape"></path>
            </g>
        </g>
    </g>
</svg>