<?xml version="1.0" encoding="UTF-8"?>
<svg width="300px" height="81px" viewBox="0 0 300 81" version="1.1" xmlns="http://www.w3.org/2000/svg" xmlns:xlink="http://www.w3.org/1999/xlink">
    <!-- Generator: Sketch 39.1 (31720) - http://www.bohemiancoding.com/sketch -->
    <title>Page.qy</title>
    <desc>Created with Sketch.</desc>
    <defs></defs>
    <g id="Page-1" stroke="none" stroke-width="1" fill="none" fill-rule="evenodd">
        <g id="Website" transform="translate(-592.000000, -46.000000)" fill="#FFFFFF">
            <g id="Group-2" transform="translate(529.000000, -195.000000)">
                <path d="M85.9117446,271.428246 L85.368383,273.782812 C87.1795972,275.17141 89.0209706,275.865698 90.8925586,275.865698 C93.9716227,275.865698 96.6129371,274.401655 98.8165809,271.473526 C101.020225,268.545396 102.12203,265.058861 102.12203,261.013816 C102.12203,256.848024 100.76364,253.497328 98.0468188,250.961628 C95.3299975,248.425928 91.73781,247.158097 87.2701484,247.158097 C82.2591226,247.158097 77.9122738,248.516488 74.2294717,251.233309 C70.8485385,253.708635 69.1580974,256.395229 69.1580974,259.293172 C69.1580974,260.561021 69.8221993,261.617547 71.150423,262.46278 C72.4786467,263.308014 73.1427486,263.911743 73.1427486,264.273986 C73.1427486,265.119219 72.901257,265.843694 72.4182665,266.447432 C71.9352761,267.05117 71.3013607,267.353034 70.5165012,267.353034 C68.5241656,267.353034 66.7733515,266.507814 65.2640064,264.817347 C63.7546612,263.126881 63,261.164761 63,258.930931 C63,254.101026 65.3847295,249.90511 70.1542602,246.343055 C74.9237908,242.781001 80.5686569,241 87.0890279,241 C93.8508941,241 99.2542686,242.811187 103.299314,246.433615 C107.344359,250.056044 109.366851,254.916062 109.366851,261.013816 C109.366851,266.749328 107.525477,271.730092 103.842675,275.956259 C100.159873,280.182425 95.7828378,282.295476 90.7114381,282.295476 C89.2624668,282.295476 88.2210343,282.204917 87.5871093,282.023796 C86.9531843,281.842674 85.7306331,281.299318 83.919419,280.393711 C83.0138119,284.016139 82.1384048,287.608327 81.2931716,291.170381 C78.7574717,299.260471 74.682301,303.305456 69.0675371,303.305456 C67.7393134,303.305456 66.8186267,303.003591 66.3054493,302.399853 C65.792272,301.796115 65.2941955,300.437725 64.8112051,298.324642 L64.3584038,296.060635 C65.867749,296.362504 66.9544612,296.513436 67.618573,296.513436 C69.7316562,296.513436 71.4371906,295.1192 72.7352274,292.330685 C74.0332643,289.54217 75.4973071,284.298217 77.1273998,276.59867 C78.3952497,270.779202 79.3914026,266.505461 80.1158882,263.777319 C81.2629905,259.594546 82.6213808,255.775489 84.1910997,252.320032 L87.6323894,252.320032 L90.0775163,252.320032 C90.6812544,252.501153 91.1642376,252.621899 91.5264804,252.682273 C90.6812471,254.734982 89.8360265,257.104619 88.9907933,259.791253 C88.14556,262.477887 87.1192207,266.356846 85.9117446,271.428246 L85.9117446,271.428246 Z M156.982097,285.917887 L156.982097,293.575888 C149.978736,300.001925 144.484802,303.214895 140.500131,303.214895 C138.628543,303.214895 137.375805,302.512825 136.74188,301.108662 C136.107955,299.704499 135.790998,298.046839 135.790998,296.13563 L135.790998,294.611671 C132.893055,297.811483 130.493232,300.04528 128.591457,301.31313 C126.689682,302.58098 124.833216,303.214895 123.022002,303.214895 C120.30518,303.214895 117.935544,301.931971 115.913022,299.366085 C113.890499,296.800198 112.879253,293.76646 112.879253,290.264779 C112.879253,283.744408 114.931932,278.099542 119.03735,273.330011 C122.8409,268.922723 126.976444,266.719112 131.444105,266.719112 C133.255319,266.719112 134.900481,267.171909 136.379639,268.077516 C137.858797,268.983123 139.262467,270.432073 140.590691,272.424409 L142.130215,266.719112 L149.646717,266.719112 L144.937583,285.827326 C144.514967,287.323465 144.152729,288.924054 143.85086,290.629142 C143.548991,292.334231 143.398059,293.515983 143.398059,294.174435 C143.398059,295.31116 143.760296,295.879515 144.484782,295.879515 C145.450763,295.879515 147.035552,294.997033 149.239195,293.232042 C151.442839,291.467052 154.023781,289.029024 156.982097,285.917887 L156.982097,285.917887 Z M137.276752,287.0131 L139.324263,277.948584 C137.271553,275.533632 135.913163,274.054496 135.249051,273.511132 C134.28307,272.726272 133.256731,272.333848 132.170002,272.333848 C129.271116,272.333848 126.659517,273.97901 124.335125,277.269382 C122.010734,280.559755 120.848555,284.257595 120.848555,288.363013 C120.848555,290.959087 121.272109,293.057045 122.119229,294.656951 C122.966349,296.256857 124.085606,297.056798 125.477033,297.056798 C127.292964,297.056798 129.471577,295.729538 132.012937,293.074977 C133.767551,291.084528 135.522138,289.063922 137.276752,287.0131 L137.276752,287.0131 Z M182.500642,301.22257 L183.859045,294.702231 L182.500642,296.151195 C179.904568,298.807643 177.71605,300.679203 175.935023,301.765931 C174.153996,302.85266 172.418275,303.396016 170.727808,303.396016 C167.829866,303.396016 165.445136,302.158371 163.573548,299.683045 C161.70196,297.207719 160.76618,294.068329 160.76618,290.264779 C160.76618,284.227398 162.669813,278.824024 166.477136,274.054493 C170.28446,269.284963 174.636025,266.900233 179.531963,266.900233 C181.162999,266.900233 182.537662,267.262942 183.655992,267.988371 C184.774323,268.7138 186.360762,270.254724 188.415358,272.611189 L189.683202,266.905893 L197.080843,266.900233 L191.013306,296.332316 C191.858539,295.728578 193.005624,294.732425 194.454595,293.343828 C198.982631,289.117661 201.639038,286.642372 202.423898,285.917887 L202.423898,293.615508 C198.076984,297.117189 193.760321,300.588631 189.473781,304.029938 C188.387053,310.188066 186.983383,314.534915 185.262729,317.070614 C183.542076,319.606314 181.051694,320.874145 177.791508,320.874145 C175.316182,320.874145 173.218224,320.134577 171.497571,318.655419 C169.776917,317.176261 168.916603,315.531099 168.916603,313.719885 C168.916603,311.969045 169.731637,310.248417 171.36173,308.55795 C172.267337,307.59197 175.13505,305.62985 179.964954,302.671534 L182.500642,301.22257 Z M181.051678,308.014589 C179.421585,308.920196 178.048101,309.840883 176.931186,310.776677 C175.814271,311.712471 175.255821,312.572784 175.255821,313.357644 C175.255821,314.142503 175.43694,314.776419 175.799183,315.259409 C176.161426,315.7424 176.734968,315.983891 177.519828,315.983891 C178.063192,315.983891 178.621641,315.395256 179.195192,314.217966 C179.768743,313.040677 180.387566,310.972905 181.051678,308.014589 L181.051678,308.014589 Z M185.763641,285.917887 L187.38382,278.508926 C186.049937,276.753369 185.079725,275.572795 184.473157,274.967171 C182.957209,273.332361 181.471469,272.514969 180.015895,272.514969 C177.589622,272.514969 175.254889,273.752613 173.011625,276.227939 C170.160849,279.367377 168.735483,283.563294 168.735483,288.815815 C168.735483,291.291141 169.158093,293.313633 170.003326,294.883352 C170.84856,296.453071 171.96593,297.237919 173.355471,297.237919 C174.683695,297.237919 176.404322,296.302139 178.517405,294.430551 C180.147498,293.041953 181.717665,291.381698 183.227954,289.449737 L184.767478,287.547971 C185.069347,287.246102 185.371212,286.793305 185.673081,286.189567 C185.673081,286.129194 185.703267,286.038634 185.763641,285.917887 L185.763641,285.917887 Z M243.066005,285.917887 L243.066005,293.524948 C233.768439,300.22644 224.74269,303.577136 215.988488,303.577136 C212.788677,303.577136 210.358668,302.264026 208.698388,299.637765 C207.038108,297.011505 206.207981,294.038139 206.207981,290.71758 C206.207981,284.136835 208.1701,278.295757 212.094397,273.194171 C216.018695,268.092584 220.546662,265.541829 225.678436,265.541829 C230.50834,265.541829 232.923256,267.835999 232.923256,272.424409 C232.923256,276.529827 230.810205,280.122015 226.584038,283.201079 C224.350207,284.831172 220.727834,286.672545 215.716808,288.725255 L213.815042,289.540297 L213.815042,289.902538 C213.815042,291.955247 214.147093,293.615502 214.811205,294.883352 C215.777186,296.75494 217.316695,297.69072 219.429778,297.69072 C223.052206,297.69072 226.704767,296.770033 230.387569,294.928632 C234.070371,293.087231 238.296474,290.083679 243.066005,285.917887 L243.066005,285.917887 Z M214.720645,283.56332 C218.463821,282.174722 221.452279,280.559747 223.68611,278.718346 C225.919941,276.876945 227.03684,275.050665 227.03684,273.239451 C227.03684,271.911227 226.342551,271.247125 224.953954,271.247125 C222.961618,271.247125 220.939126,272.469676 218.886417,274.914816 C216.833707,277.359955 215.445131,280.242761 214.720645,283.56332 L214.720645,283.56332 Z M252.736504,302.037612 C252.736504,299.924529 253.038369,298.143528 253.642107,296.694557 C254.728835,294.03811 256.600395,292.709906 259.256843,292.709906 C260.222824,292.709906 260.977485,292.830652 261.520849,293.072147 C262.064213,293.313642 262.335891,293.887185 262.335891,294.792792 C262.335891,295.638025 261.852908,297.600144 260.886927,300.679208 C260.343563,302.369675 259.920953,303.305455 259.619084,303.486576 C259.437962,303.607324 258.9097,303.72807 258.034279,303.848817 C257.158859,303.969565 256.449478,304.029938 255.906113,304.029938 C253.79303,304.029938 252.736504,303.365836 252.736504,302.037612 L252.736504,302.037612 Z M291.597121,321.042531 L296.766131,295.143713 C291.164574,300.705649 286.888003,303.486576 283.93629,303.486576 C281.165698,303.486576 278.816815,302.218745 276.88957,299.683045 C274.962325,297.147346 273.998717,294.038141 273.998717,290.355339 C273.998717,283.472725 276.232514,277.676927 280.700176,272.96777 C284.564099,268.922725 288.488338,266.900233 292.473009,266.900233 C295.552073,266.900233 298.631091,268.801979 301.710155,272.605529 L302.977998,266.900233 L310.4945,266.900233 L302.962433,302.109777 L317.381324,285.922132 L317.381324,293.615508 L300.767762,311.9483 L299.139093,321.048191 L291.597121,321.042531 Z M298.631106,286.823489 L300.442311,278.582506 C298.027359,274.597835 295.55207,272.605529 293.01637,272.605529 C290.178801,272.605529 287.64314,274.265784 285.409309,277.586343 C283.175478,280.906902 282.058579,284.680209 282.058579,288.906375 C282.058579,291.381701 282.496283,293.3891 283.371703,294.928632 C284.247123,296.468164 285.379115,297.237919 286.767713,297.237919 C289.182665,297.237919 293.13709,293.766477 298.631106,286.823489 L298.631106,286.823489 Z M326.051416,269.52648 L327.047579,266.900233 L334.7452,266.900233 C332.632117,272.696118 331.077515,277.450484 330.081347,281.163473 C329.085179,284.876462 328.587103,288.00076 328.587103,290.53646 C328.587103,293.675897 329.216773,295.245593 330.476133,295.245593 C332.694871,295.245593 335.363542,293.642409 338.482226,290.435994 C340.820768,288.076699 342.919669,285.414632 344.778994,282.449712 L348.92637,266.980888 L356.298541,266.990793 L349.234841,295.245593 C350.985682,294.298479 353.732648,292.492008 357.475824,289.826128 C360.011524,288.049817 361.852898,286.747083 363,285.917887 L363,293.615508 C362.154767,294.098499 360.947309,294.883346 359.37759,295.970075 C356.902264,297.660541 353.974178,299.381169 350.593245,301.132009 L347.604757,302.762094 C346.336907,308.618353 344.676652,313.055761 342.623943,316.074452 C340.269364,319.455385 337.431838,321.145826 334.111279,321.145826 C331.817074,321.145826 329.764395,320.542097 327.953181,319.334621 C326.141967,318.127145 325.236374,316.738568 325.236374,315.168849 C325.236374,311.365299 329.764341,306.324162 338.820412,300.045286 L340.722177,298.777443 L342.171141,293.524948 C339.695815,296.422891 336.979035,298.656688 334.020718,300.226407 C331.364271,301.615004 328.798423,302.309293 326.323097,302.309293 C324.330761,302.309293 322.911998,300.649038 322.066765,297.328479 C321.5234,295.155022 321.251722,292.679733 321.251722,289.902538 C321.251722,285.49525 322.851604,278.703299 326.051416,269.52648 L326.051416,269.52648 Z M339.001532,307.471227 L339.363773,305.931703 C333.990505,309.735253 331.303911,312.48222 331.303911,314.172686 C331.303911,315.621658 332.269877,316.346132 334.201839,316.346132 C335.348941,316.346132 336.269628,315.712217 336.963927,314.444367 C337.658225,313.176517 338.337421,310.85216 339.001532,307.471227 L339.001532,307.471227 Z" id="Page.qy"></path>
            </g>
        </g>
    </g>
</svg>