<?xml version="1.0" encoding="UTF-8"?>
<svg width="29px" height="16px" viewBox="0 0 29 16" version="1.1" xmlns="http://www.w3.org/2000/svg" xmlns:xlink="http://www.w3.org/1999/xlink">
    <!-- Generator: Sketch 39.1 (31720) - http://www.bohemiancoding.com/sketch -->
    <title>view_1150735_easyicon.net</title>
    <desc>Created with Sketch.</desc>
    <defs></defs>
    <g id="Page-1" stroke="none" stroke-width="1" fill="none" fill-rule="evenodd">
        <g id="view_1150735_easyicon.net" fill="#FFFFFF">
            <g id="Group">
                <path d="M27.598,5.929 C24.835,3.683 20.19,0.418 14.342,0.308 L14.324,0.308 L14.306,0.308 C8.464,0.42 3.812,3.683 1.052,5.929 C0.92,6.038 0.016,6.729 0,7.616 C-0.011,8.24 0.28,8.701 0.699,9.086 C2.954,11.268 7.875,15.145 14.308,15.174 L14.308,15.176 L14.326,15.176 L14.344,15.176 L14.344,15.174 C20.789,15.145 25.698,11.268 27.951,9.086 C28.369,8.701 28.659,8.24 28.648,7.616 C28.632,6.729 27.73,6.038 27.598,5.929 L27.598,5.929 Z M14.326,13.496 C11.164,13.475 8.607,10.906 8.607,7.74 C8.607,4.573 11.164,2.005 14.326,1.985 C17.496,2.005 20.044,4.574 20.044,7.74 C20.044,10.906 17.497,13.475 14.326,13.496 L14.326,13.496 Z" id="Shape"></path>
                <path d="M14.344,5.503 C14.338,5.502 14.332,5.502 14.326,5.502 L14.308,5.502 L14.308,5.503 C13.098,5.533 12.122,6.524 12.122,7.74 C12.122,8.957 13.097,9.948 14.308,9.975 L14.308,9.977 C14.314,9.977 14.32,9.975 14.326,9.975 C14.331,9.975 14.337,9.977 14.344,9.977 L14.344,9.975 C15.566,9.948 16.53,8.955 16.53,7.74 C16.526,6.522 15.563,5.533 14.344,5.503 L14.344,5.503 Z" id="Shape"></path>
            </g>
        </g>
    </g>
</svg>